<svg xmlns="http://www.w3.org/2000/svg" version="1.1" xmlns:xlink="http://www.w3.org/1999/xlink" viewBox="0 0 22.491934563234985 7.507413903704068"><g transform="matrix(0.7501892803712749,0,0,0.7501892803712749,9.52225231354711,2.858274726383096)"><rect width="24.99188026881324" height="24.99188026881324" x="-10.198233391359983" y="-11.302331735969119" fill="#ffffff"></rect><g transform="matrix(1,0,0,1,0,0)" clip-path="url(#SvgjsClipPath82333)"><g clip-path="url(#SvgjsClipPath823287633a1b6-9702-4418-9c5d-a07e6994c644)"><path d=" M -3.912841241754383 3.3332026372404364 L -3.4500801693406764 3.115472803130414 C -3.4022459287152103 2.820971965547411 -3.197190124172611 1.7082466814820543 -2.759595404376671 1.2176845119526942 C -2.8358667149276275 1.1484543289391977 -2.9115474792980285 1.0730915509737136 -2.986047151307301 0.9943672024419703 C -3.165586344888731 1.122435839321862 -3.3265312784738184 1.2747434355707394 -3.464298704303425 1.4469527098983033 C -3.737358172869125 1.7842908588866453 -3.912750388495839 2.1674644768123996 -3.912750388495839 2.4403422388609997 L -3.912750388495839 3.3332026372404364 Z M -3.17002499986679 0.7921278489143422 C -3.358838468894062 0.9304846275529535 -3.528684268085616 1.0930148851733645 -3.6752145440223645 1.2755580376476967 C -3.826144425907548 1.4605288001249046 -3.9518761150878796 1.6646995883139888 -4.049121129576227 1.8827303645233018 C -4.146366144064578 1.6646995883139888 -4.272097833244908 1.4605288001249046 -4.423027715130095 1.275558037647707 C -4.569562324462345 1.0930030505664456 -4.739424775092482 0.9304714735473851 -4.928262685914937 0.7921278489143524 C -4.839135639279453 0.6907810390041731 -4.75237077736621 0.5879805769572297 -4.668922059389969 0.4890868050278423 C -4.532107548204481 0.31927763611015414 -4.386179542293297 0.15701746119072535 -4.231781605886768 0.0030218717965930786 C -4.168184324903244 -0.05566933322534018 -4.1076760547103435 -0.10954531554424052 -4.049121129576225 -0.15769754257462587 C -3.990566204442108 -0.10954531554424563 -3.9300579342492084 -0.05566933322534018 -3.866506079894956 0.0030218717965981856 C -3.7120796471365383 0.15700394535344508 -3.566135807567842 0.31926486424216716 -3.429320199762487 0.48908680502783186 C -3.3459169084155125 0.5879805769572297 -3.2591066198729983 0.6907810390041731 -3.1700249998667847 0.7921278489143524 Z M -4.278207621004746 -0.3202794487460975 C -4.322530676128192 -0.3459956081479224 -4.3690298971299 -0.3677631414838015 -4.417167679953753 -0.3853303818663891 C -4.582111770847458 -0.4443849999225171 -4.761001836928266 -0.4377072854192524 -4.9919508201570135 -0.3439467225978249 C -5.329986612485874 -0.20418649615369655 -5.690850718016306 -0.1278098815417572 -6.05652387719198 -0.11863064139905011 C -6.362744785127661 -0.11717698926227582 -6.657518182486308 -0.18222792238256735 -6.8896028314469095 -0.35212351586713175 C -7.067217200824391 -0.4770992632707709 -7.20665856529633 -0.648920211530654 -7.292400753219001 -0.8484548673142851 C -7.3959280413343285 -0.6241835985888063 -7.488825498199552 -0.31991603571190774 -7.382254625922867 -0.08701370742437597 C -7.261919484976179 0.17591562281323658 -6.793843496937425 0.25563935718901276 -6.281431118727297 0.34285848539499497 C -6.00383776855351 0.3839326672823802 -5.729190803364136 0.4429134824034333 -5.459209128868837 0.5194317933828188 C -5.356098666969454 0.551734757948986 -5.256360414007281 0.5939516054123806 -5.161392147348837 0.6454906896180321 C -5.063815747668395 0.5352856869994289 -4.968056413158916 0.42180996707311347 -4.8765671818011835 0.3134220296254744 C -4.732687532522462 0.1348063793212615 -4.578920022334293 -0.035613337809076384 -4.415986587592627 -0.19703700352587128 C -4.368924599664819 -0.2404648611117648 -4.323013419678615 -0.28154567618517534 -4.278253047634017 -0.3202794487460975 Z M -4.185446444027347 3.6332455235948578 L -4.829096354209911 3.3303861862254447 L -4.8959643525011645 3.2989055321386003 L -4.906276197346349 3.2265409117052 C -4.906912170156185 3.221998248777811 -5.098930532097162 1.8497506316703944 -5.54615569729918 1.387943518471443 C -5.707829070885159 1.50518964862749 -5.870229270539523 1.5839139971592537 -6.028541073559233 1.5977236924585245 C -6.709349966487884 1.6567783105146576 -6.94011724319954 0.9303156551656864 -6.9407986426386525 0.9282260302190837 L -6.994901758103923 0.7646901648328726 L -6.823143672819132 0.749835657060296 C -6.379616117834315 0.7277468339931694 -5.938706859417753 0.8296802598927489 -5.5498806808996495 1.0442002147554748 C -5.484420908115889 0.9860541292848235 -5.418143456005199 0.9215483157158193 -5.352229416928699 0.852908678882883 C -5.412589028704389 0.823755946199241 -5.475024499857531 0.7991127629109247 -5.539023716503174 0.7791812595712599 C -5.79755554714623 0.7064900338495699 -6.060457497521307 0.6503500663775426 -6.326130921932851 0.6111027312576491 C -6.912906692264452 0.5111641468549657 -7.448895491067762 0.41999290190215466 -7.629239209285333 0.02578061306283841 C -7.885581678278222 -0.5343751525142131 -7.345459056210985 -1.3078997957910008 -7.34391455081567 -1.3101711272546954 L -7.096384847901932 -1.2218163333168608 C -7.096384847901932 -1.2207715208435597 -7.130818232891583 -0.8658078396969375 -6.728837990446417 -0.5714432820017533 C -6.548494272228846 -0.439478923960933 -6.3098681886528 -0.3889645122083015 -6.057568689665291 -0.39014560456942715 C -5.726451942232057 -0.399265657967263 -5.39982428046624 -0.46910882365668205 -5.093933602877026 -0.5962007949560343 C -4.794117849668972 -0.7179441614102183 -4.554310673731798 -0.7237587699572845 -4.325405888820377 -0.6416274242299893 C -4.227659001037292 -0.6054876947939906 -4.13483777930718 -0.5572151653082413 -4.04912112957623 -0.4979429958364905 C -3.9633476322419687 -0.5573270304642113 -3.870448561481741 -0.6056919319327733 -3.7726092371857067 -0.6418999840056329 C -3.543749878903558 -0.7236679166987384 -3.3038064230785666 -0.7179895880394914 -3.0040815231290594 -0.596473354731683 C -2.698267699703403 -0.46937737609689323 -2.371719295302091 -0.3995039010321456 -2.0406735694871765 -0.390327311086509 C -1.7883740704996702 -0.3891462187253887 -1.549747986923621 -0.43966063047801485 -1.3694042687060497 -0.5716249885188353 C -0.9674240262608844 -0.8659895462140141 -1.0018119846212645 -1.2209532273606416 -1.0018574112505378 -1.2219980398339427 L -0.7543277083367945 -1.3103528337717774 C -0.7527832029414814 -1.3080815023080774 -0.21266058087424256 -0.5345568590312949 -0.46900304986712893 0.025598906545756472 C -0.6493921947139754 0.4198111953850727 -1.1853809935172857 0.510982440337884 -1.7721113372195951 0.6109210247405725 C -2.037785571328053 0.6501638725147394 -2.3006878058061604 0.7063039006540075 -2.559218542649293 0.7789995530541831 C -2.6232298049243257 0.7989386616672554 -2.685679823504227 0.8235815938712898 -2.7460582688530364 0.8527269723658009 C -2.679962523259441 0.9212303293109181 -2.613821351036573 0.9858269961384685 -2.5483615782528153 1.044018508238393 C -2.159535399734711 0.8294985533756671 -1.718626141318155 0.7275651274760877 -1.2750985863333328 0.7496539505432138 L -1.1033405010485362 0.7645084583157908 L -1.157443616513807 0.928044323702002 C -1.1581250159529164 0.9301339486486042 -1.3891194258109403 1.6566874572561217 -2.0697011855932264 1.5975419859414424 C -2.2280129886129334 1.5839139971592644 -2.390367761638024 1.5050079421104083 -2.552086561853277 1.3877618119543613 C -2.999311727055292 1.8495689251533123 -3.191330088996269 3.222043675407094 -3.191966061806104 3.2263592051881185 L -3.2022779066512896 3.2987238256215186 L -3.2691459049425395 3.330204479708363 L -3.9128412417543803 3.633063817077776 L -4.049121129576225 3.697160790983312 L -4.185401017398069 3.633063817077776 Z M -4.648162089811778 3.115381949871847 L -4.185401017398071 3.3332026372404364 L -4.185401017398071 2.4403422388609997 C -4.185401017398071 2.1674644768123894 -4.36074780639551 1.7842908588866453 -4.63380727496121 1.4469527098983033 C -4.771585021082778 1.2747529323907005 -4.932528548074325 1.1224466672485267 -5.112058827957331 0.9943672024419703 C -5.18660392659588 1.0730915509737136 -5.2622846909662755 1.1484543289391977 -5.338510574887964 1.2176845119526942 C -4.9010067083505735 1.7082921081113276 -4.6959509038079705 2.820971965547411 -4.648025809923956 3.115472803130414 Z M -2.93689553843289 0.6453998363594808 C -2.8419272717744493 0.5938607521538293 -2.7421890188122777 0.5516439046904293 -2.6390785569128905 0.5193409401242728 C -2.369096882417594 0.44282262914489245 -2.0944499172282205 0.3838418140238342 -1.8168565670544385 0.3427676321364437 C -1.3044441888443048 0.25554850393046147 -0.8363682008055431 0.1758247695546853 -0.7160330598588551 -0.08710456068292194 C -0.6094621875821753 -0.32000688897045393 -0.7024050710766723 -0.6242744518473576 -0.805886932562724 -0.8485457205728416 C -0.8916455683823665 -0.649021009772694 -1.0310836024096313 -0.4772041653177608 -1.2086848543348179 -0.35221436912568316 C -1.440769503295419 -0.18231877564111865 -1.7356337539126176 -0.11726784252082711 -2.0418092352190236 -0.11872149465759096 C -2.4074671768469864 -0.12790525443349643 -2.7683155709948775 -0.20428180282359287 -3.1063368656247157 -0.3440375758563762 C -3.337240422224194 -0.4377981386778037 -3.5161304883050013 -0.44447585318107363 -3.681120005827979 -0.3854212351249404 C -3.7292725552510677 -0.3678544930922998 -3.775786905203187 -0.3460869933761467 -3.820125491406259 -0.32037030200464356 C -3.775183412844568 -0.28175766712178807 -3.7292570906486042 -0.24067685204838285 -3.6823465248183753 -0.19712785678442768 C -3.5194130900767133 -0.035704191067632784 -3.3656455798885387 0.1347155260627051 -3.221765930609817 0.313331176366918 C -3.1303221258813627 0.4217191138145622 -3.0345173647426034 0.535194833740883 -2.936940965062166 0.6453998363594808 Z M -5.788007071553676 1.2259067318512535 C -6.041346015212444 1.104776906832531 -6.316161846546537 1.0350076516752922 -6.596601072629943 1.0206237941622986 C -6.504884708125845 1.1682603393026163 -6.333126622841048 1.3505119759496922 -6.052162920781678 1.3261178760295804 C -5.957656001970733 1.3133796271102351 -5.867340402946915 1.2790935814302284 -5.788188778070774 1.2259067318512429 Z M -1.5018228930396065 1.0206237941622884 C -1.7822621191230112 1.0350076516752922 -2.0570779504571073 1.104776906832531 -2.31041689411588 1.2259067318512638 C -2.2312652692397315 1.2790935814302284 -2.140949670215922 1.3133796271102351 -2.0464427514049692 1.3261178760295702 C -1.7652064895699544 1.3506028292082592 -1.593539257543707 1.1683511925611834 -1.5018228930396065 1.0207146474208555 Z" fill="url(#gradient-42ae73ae-a203-4631-8cc6-703493d65783_0)" transform="matrix(1,0,0,1,0,0)" fill-rule="evenodd"></path></g></g><g><path d=" M 0.9140625 0.50830078125 Q 0.900146484375 0.482666015625 0.8843994140625 0.46875 Q 0.86865234375 0.454833984375 0.853271484375 0.4471435546875 Q 0.837890625 0.439453125 0.8243408203125 0.4354248046875 Q 0.810791015625 0.431396484375 0.800537109375 0.4266357421875 Q 0.790283203125 0.421875 0.7840576171875 0.4134521484375 Q 0.77783203125 0.405029296875 0.77783203125 0.38818359375 Q 0.77783203125 0.29736328125 0.8719482421875 0.2567138671875 Q 0.966064453125 0.216064453125 1.1455078125 0.216064453125 Q 1.23193359375 0.216064453125 1.2989501953125 0.2259521484375 Q 1.365966796875 0.23583984375 1.4117431640625 0.2567138671875 Q 1.45751953125 0.277587890625 1.4813232421875 0.3101806640625 Q 1.505126953125 0.3427734375 1.505126953125 0.38818359375 Q 1.505126953125 0.403564453125 1.497802734375 0.4112548828125 Q 1.490478515625 0.4189453125 1.4794921875 0.42333984375 Q 1.468505859375 0.427734375 1.4556884765625 0.4302978515625 Q 1.44287109375 0.432861328125 1.431884765625 0.43798828125 Q 1.4208984375 0.443115234375 1.41357421875 0.451904296875 Q 1.40625 0.460693359375 1.40625 0.4775390625 Q 1.40625 0.486328125 1.408447265625 0.497314453125 Q 1.41064453125 0.50830078125 1.41650390625 0.52294921875 L 1.513916015625 0.785888671875 Q 1.5205078125 0.803466796875 1.5296630859375 0.8162841796875 Q 1.538818359375 0.8291015625 1.549072265625 0.8291015625 Q 1.55712890625 0.8291015625 1.5662841796875 0.8177490234375 Q 1.575439453125 0.806396484375 1.5849609375 0.778564453125 L 1.669921875 0.52294921875 Q 1.6787109375 0.49658203125 1.6787109375 0.479736328125 Q 1.6787109375 0.462158203125 1.6710205078125 0.45263671875 Q 1.663330078125 0.443115234375 1.6512451171875 0.43798828125 Q 1.63916015625 0.432861328125 1.6256103515625 0.4302978515625 Q 1.612060546875 0.427734375 1.5999755859375 0.42333984375 Q 1.587890625 0.4189453125 1.5802001953125 0.4112548828125 Q 1.572509765625 0.403564453125 1.572509765625 0.38818359375 Q 1.572509765625 0.35302734375 1.58642578125 0.3218994140625 Q 1.600341796875 0.290771484375 1.6278076171875 0.267333984375 Q 1.6552734375 0.243896484375 1.6959228515625 0.22998046875 Q 1.736572265625 0.216064453125 1.7900390625 0.216064453125 Q 1.84423828125 0.216064453125 1.88525390625 0.22998046875 Q 1.92626953125 0.243896484375 1.9537353515625 0.267333984375 Q 1.981201171875 0.290771484375 1.9951171875 0.3218994140625 Q 2.009033203125 0.35302734375 2.009033203125 0.38818359375 Q 2.009033203125 0.40576171875 2.000244140625 0.413818359375 Q 1.991455078125 0.421875 1.9771728515625 0.4259033203125 Q 1.962890625 0.429931640625 1.944580078125 0.4339599609375 Q 1.92626953125 0.43798828125 1.907958984375 0.447509765625 Q 1.8896484375 0.45703125 1.8724365234375 0.475341796875 Q 1.855224609375 0.49365234375 1.8427734375 0.526611328125 L 1.647216796875 1.046630859375 Q 1.6201171875 1.118408203125 1.598876953125 1.1737060546875 Q 1.57763671875 1.22900390625 1.5589599609375 1.2703857421875 Q 1.540283203125 1.311767578125 1.5230712890625 1.339599609375 Q 1.505859375 1.367431640625 1.4871826171875 1.3846435546875 Q 1.468505859375 1.40185546875 1.446533203125 1.4095458984375 Q 1.424560546875 1.417236328125 1.3974609375 1.417236328125 Q 1.3623046875 1.417236328125 1.332275390625 1.396728515625 Q 1.30224609375 1.376220703125 1.2703857421875 1.3271484375 Q 1.238525390625 1.278076171875 1.2015380859375 1.1956787109375 Q 1.16455078125 1.11328125 1.116943359375 0.989501953125 L 1.008544921875 0.71044921875 L 0.881103515625 1.0458984375 Q 0.840087890625 1.153564453125 0.8115234375 1.2249755859375 Q 0.782958984375 1.29638671875 0.756591796875 1.3392333984375 Q 0.730224609375 1.382080078125 0.7012939453125 1.399658203125 Q 0.67236328125 1.417236328125 0.630615234375 1.417236328125 Q 0.595458984375 1.417236328125 0.568359375 1.3956298828125 Q 0.541259765625 1.3740234375 0.5115966796875 1.32421875 Q 0.48193359375 1.2744140625 0.44384765625 1.1923828125 Q 0.40576171875 1.1103515625 0.35009765625 0.989501953125 L 0.135498046875 0.526611328125 Q 0.120849609375 0.495849609375 0.1043701171875 0.478271484375 Q 0.087890625 0.460693359375 0.07177734375 0.451171875 Q 0.0556640625 0.441650390625 0.0406494140625 0.437255859375 Q 0.025634765625 0.432861328125 0.0142822265625 0.427734375 Q 0.0029296875 0.422607421875 -0.0040283203125 0.4141845703125 Q -0.010986328125 0.40576171875 -0.010986328125 0.38818359375 Q -0.010986328125 0.29736328125 0.0831298828125 0.2567138671875 Q 0.17724609375 0.216064453125 0.35595703125 0.216064453125 Q 0.4423828125 0.216064453125 0.509765625 0.2259521484375 Q 0.5771484375 0.23583984375 0.6229248046875 0.2567138671875 Q 0.668701171875 0.277587890625 0.6925048828125 0.3101806640625 Q 0.71630859375 0.3427734375 0.71630859375 0.38818359375 Q 0.71630859375 0.40283203125 0.7086181640625 0.410888671875 Q 0.700927734375 0.4189453125 0.68994140625 0.4237060546875 Q 0.678955078125 0.428466796875 0.6654052734375 0.4317626953125 Q 0.65185546875 0.43505859375 0.640869140625 0.4398193359375 Q 0.6298828125 0.444580078125 0.6221923828125 0.4530029296875 Q 0.614501953125 0.46142578125 0.614501953125 0.47607421875 Q 0.614501953125 0.48486328125 0.617431640625 0.49658203125 Q 0.620361328125 0.50830078125 0.627685546875 0.52294921875 L 0.747802734375 0.785888671875 Q 0.755859375 0.802734375 0.763916015625 0.8155517578125 Q 0.77197265625 0.828369140625 0.7822265625 0.828369140625 Q 0.790283203125 0.828369140625 0.799072265625 0.8173828125 Q 0.807861328125 0.806396484375 0.818115234375 0.778564453125 L 0.9140625 0.50830078125 M 2.492431640625 0.599853515625 Q 2.468994140625 0.599853515625 2.448486328125 0.6104736328125 Q 2.427978515625 0.62109375 2.4129638671875 0.64306640625 Q 2.39794921875 0.6650390625 2.3895263671875 0.6990966796875 Q 2.381103515625 0.733154296875 2.381103515625 0.780029296875 L 2.61474609375 0.780029296875 Q 2.61474609375 0.728759765625 2.606689453125 0.6939697265625 Q 2.5986328125 0.6591796875 2.583251953125 0.6383056640625 Q 2.56787109375 0.617431640625 2.5447998046875 0.608642578125 Q 2.521728515625 0.599853515625 2.492431640625 0.599853515625 M 2.438232421875 0.412353515625 Q 2.536376953125 0.412353515625 2.6151123046875 0.441650390625 Q 2.69384765625 0.470947265625 2.7491455078125 0.522216796875 Q 2.804443359375 0.573486328125 2.8341064453125 0.6427001953125 Q 2.86376953125 0.7119140625 2.86376953125 0.791748046875 Q 2.86376953125 0.82470703125 2.8546142578125 0.843017578125 Q 2.845458984375 0.861328125 2.82861328125 0.8701171875 Q 2.811767578125 0.87890625 2.786865234375 0.881103515625 Q 2.761962890625 0.88330078125 2.73046875 0.88330078125 L 2.378173828125 0.88330078125 Q 2.378173828125 0.9638671875 2.3946533203125 1.0140380859375 Q 2.4111328125 1.064208984375 2.4404296875 1.092041015625 Q 2.4697265625 1.119873046875 2.5107421875 1.1297607421875 Q 2.5517578125 1.1396484375 2.6015625 1.1396484375 Q 2.6279296875 1.1396484375 2.6561279296875 1.134521484375 Q 2.684326171875 1.12939453125 2.7103271484375 1.121337890625 Q 2.736328125 1.11328125 2.75830078125 1.1044921875 Q 2.7802734375 1.095703125 2.794921875 1.087646484375 Q 2.806640625 1.0810546875 2.817626953125 1.0810546875 Q 2.83447265625 1.0810546875 2.843994140625 1.0953369140625 Q 2.853515625 1.109619140625 2.853515625 1.127197265625 Q 2.853515625 1.133056640625 2.852783203125 1.13818359375 Q 2.85205078125 1.143310546875 2.849853515625 1.1484375 Q 2.82861328125 1.20263671875 2.7919921875 1.248779296875 Q 2.75537109375 1.294921875 2.7030029296875 1.3289794921875 Q 2.650634765625 1.363037109375 2.581787109375 1.382080078125 Q 2.512939453125 1.401123046875 2.42724609375 1.401123046875 Q 2.34521484375 1.401123046875 2.2774658203125 1.3817138671875 Q 2.209716796875 1.3623046875 2.1551513671875 1.3275146484375 Q 2.1005859375 1.292724609375 2.0595703125 1.245849609375 Q 2.0185546875 1.198974609375 1.991455078125 1.1436767578125 Q 1.96435546875 1.08837890625 1.9508056640625 1.0279541015625 Q 1.937255859375 0.967529296875 1.937255859375 0.906005859375 Q 1.937255859375 0.84375 1.951171875 0.7825927734375 Q 1.965087890625 0.721435546875 1.992919921875 0.66650390625 Q 2.020751953125 0.611572265625 2.0625 0.5650634765625 Q 2.104248046875 0.5185546875 2.159912109375 0.4844970703125 Q 2.215576171875 0.450439453125 2.28515625 0.431396484375 Q 2.354736328125 0.412353515625 2.438232421875 0.412353515625 M 3.41455078125 1.232666015625 Q 3.438720703125 1.232666015625 3.4537353515625 1.2249755859375 Q 3.46875 1.21728515625 3.476806640625 1.2030029296875 Q 3.48486328125 1.188720703125 3.4874267578125 1.1678466796875 Q 3.489990234375 1.14697265625 3.489990234375 1.12060546875 Q 3.489990234375 1.097900390625 3.4892578125 1.062744140625 Q 3.488525390625 1.027587890625 3.48779296875 0.993896484375 Q 3.486328125 0.954345703125 3.485595703125 0.911865234375 Q 3.475341796875 0.910400390625 3.4661865234375 0.9093017578125 Q 3.45703125 0.908203125 3.4482421875 0.908203125 Q 3.410888671875 0.908203125 3.3856201171875 0.9232177734375 Q 3.3603515625 0.938232421875 3.344970703125 0.9649658203125 Q 3.32958984375 0.99169921875 3.3233642578125 1.0279541015625 Q 3.317138671875 1.064208984375 3.317138671875 1.106689453125 Q 3.317138671875 1.13232421875 3.320068359375 1.1553955078125 Q 3.322998046875 1.178466796875 3.333251953125 1.1956787109375 Q 3.343505859375 1.212890625 3.3629150390625 1.2227783203125 Q 3.38232421875 1.232666015625 3.41455078125 1.232666015625 M 3.767578125 1.3828125 Q 3.730224609375 1.3828125 3.6932373046875 1.3787841796875 Q 3.65625 1.374755859375 3.6229248046875 1.3623046875 Q 3.589599609375 1.349853515625 3.561767578125 1.326416015625 Q 3.533935546875 1.302978515625 3.51416015625 1.26416015625 Q 3.49951171875 1.298583984375 3.4669189453125 1.32421875 Q 3.434326171875 1.349853515625 3.3929443359375 1.3670654296875 Q 3.3515625 1.38427734375 3.3057861328125 1.3927001953125 Q 3.260009765625 1.401123046875 3.21826171875 1.401123046875 Q 3.144287109375 1.401123046875 3.088623046875 1.383544921875 Q 3.032958984375 1.365966796875 2.994873046875 1.3333740234375 Q 2.956787109375 1.30078125 2.937744140625 1.25537109375 Q 2.918701171875 1.2099609375 2.918701171875 1.153564453125 Q 2.918701171875 1.0869140625 2.9410400390625 1.0272216796875 Q 2.96337890625 0.967529296875 3.0172119140625 0.9228515625 Q 3.071044921875 0.878173828125 3.1611328125 0.8521728515625 Q 3.251220703125 0.826171875 3.38671875 0.826171875 L 3.487060546875 0.826171875 Q 3.487060546875 0.744873046875 3.4815673828125 0.69140625 Q 3.47607421875 0.637939453125 3.46435546875 0.6064453125 Q 3.45263671875 0.574951171875 3.43505859375 0.5625 Q 3.41748046875 0.550048828125 3.392578125 0.550048828125 Q 3.36474609375 0.550048828125 3.3460693359375 0.56689453125 Q 3.327392578125 0.583740234375 3.3160400390625 0.6156005859375 Q 3.3046875 0.6474609375 3.2999267578125 0.6925048828125 Q 3.295166015625 0.737548828125 3.295166015625 0.794677734375 Q 3.263671875 0.794677734375 3.2288818359375 0.7935791015625 Q 3.194091796875 0.79248046875 3.1600341796875 0.7880859375 Q 3.1259765625 0.78369140625 3.0955810546875 0.7745361328125 Q 3.065185546875 0.765380859375 3.041748046875 0.7496337890625 Q 3.018310546875 0.73388671875 3.00439453125 0.709716796875 Q 2.990478515625 0.685546875 2.990478515625 0.651123046875 Q 2.990478515625 0.602783203125 3.0157470703125 0.5595703125 Q 3.041015625 0.516357421875 3.0933837890625 0.4837646484375 Q 3.145751953125 0.451171875 3.226318359375 0.4317626953125 Q 3.306884765625 0.412353515625 3.418212890625 0.412353515625 Q 3.5478515625 0.412353515625 3.6416015625 0.438720703125 Q 3.7353515625 0.465087890625 3.7957763671875 0.517822265625 Q 3.856201171875 0.570556640625 3.8851318359375 0.6507568359375 Q 3.9140625 0.73095703125 3.9140625 0.838623046875 L 3.9140625 1.097900390625 Q 3.9140625 1.12939453125 3.9224853515625 1.14697265625 Q 3.930908203125 1.16455078125 3.9429931640625 1.1737060546875 Q 3.955078125 1.182861328125 3.9697265625 1.1865234375 Q 3.984375 1.190185546875 3.9964599609375 1.1942138671875 Q 4.008544921875 1.1982421875 4.0169677734375 1.2052001953125 Q 4.025390625 1.212158203125 4.025390625 1.228271484375 Q 4.025390625 1.301513671875 3.9598388671875 1.3421630859375 Q 3.894287109375 1.3828125 3.767578125 1.3828125 M 4.628173828125 1.100830078125 Q 4.628173828125 1.130859375 4.63623046875 1.147705078125 Q 4.644287109375 1.16455078125 4.656005859375 1.1729736328125 Q 4.667724609375 1.181396484375 4.6820068359375 1.1846923828125 Q 4.6962890625 1.18798828125 4.7080078125 1.191650390625 Q 4.7197265625 1.1953125 4.727783203125 1.2022705078125 Q 4.73583984375 1.209228515625 4.73583984375 1.225341796875 Q 4.73583984375 1.308837890625 4.6494140625 1.3458251953125 Q 4.56298828125 1.3828125 4.399658203125 1.3828125 Q 4.3212890625 1.3828125 4.260498046875 1.3740234375 Q 4.19970703125 1.365234375 4.157958984375 1.3458251953125 Q 4.1162109375 1.326416015625 4.0946044921875 1.2967529296875 Q 4.072998046875 1.26708984375 4.072998046875 1.225341796875 Q 4.072998046875 1.209228515625 4.0806884765625 1.2022705078125 Q 4.08837890625 1.1953125 4.1004638671875 1.191650390625 Q 4.112548828125 1.18798828125 4.1260986328125 1.18505859375 Q 4.1396484375 1.18212890625 4.1517333984375 1.1737060546875 Q 4.163818359375 1.165283203125 4.1715087890625 1.1495361328125 Q 4.17919921875 1.1337890625 4.17919921875 1.103759765625 L 4.17919921875 0.280517578125 Q 4.17919921875 0.25048828125 4.1715087890625 0.2347412109375 Q 4.163818359375 0.218994140625 4.1517333984375 0.2105712890625 Q 4.1396484375 0.2021484375 4.1260986328125 0.19921875 Q 4.112548828125 0.1962890625 4.1004638671875 0.192626953125 Q 4.08837890625 0.18896484375 4.0806884765625 0.1820068359375 Q 4.072998046875 0.175048828125 4.072998046875 0.158935546875 Q 4.072998046875 0.1171875 4.0946044921875 0.0875244140625 Q 4.1162109375 0.057861328125 4.157958984375 0.0384521484375 Q 4.19970703125 0.01904296875 4.260498046875 0.01025390625 Q 4.3212890625 0.00146484375 4.399658203125 0.00146484375 Q 4.478759765625 0.00146484375 4.524169921875 0.009521484375 Q 4.569580078125 0.017578125 4.5926513671875 0.0369873046875 Q 4.61572265625 0.056396484375 4.6219482421875 0.08935546875 Q 4.628173828125 0.122314453125 4.628173828125 0.172119140625 L 4.628173828125 1.100830078125 M 5.328369140625 1.01806640625 Q 5.328369140625 1.042236328125 5.329833984375 1.0645751953125 Q 5.331298828125 1.0869140625 5.338623046875 1.1044921875 Q 5.345947265625 1.1220703125 5.361328125 1.13232421875 Q 5.376708984375 1.142578125 5.40380859375 1.142578125 Q 5.44189453125 1.142578125 5.4700927734375 1.1326904296875 Q 5.498291015625 1.122802734375 5.5283203125 1.106689453125 Q 5.5400390625 1.10009765625 5.55029296875 1.10009765625 Q 5.567138671875 1.10009765625 5.5770263671875 1.11474609375 Q 5.5869140625 1.12939453125 5.5869140625 1.147705078125 Q 5.5869140625 1.16015625 5.583251953125 1.168212890625 Q 5.56201171875 1.222412109375 5.5286865234375 1.265625 Q 5.495361328125 1.308837890625 5.4517822265625 1.3388671875 Q 5.408203125 1.368896484375 5.356201171875 1.385009765625 Q 5.30419921875 1.401123046875 5.244873046875 1.401123046875 Q 5.162841796875 1.401123046875 5.104248046875 1.3802490234375 Q 5.045654296875 1.359375 5.00537109375 1.3245849609375 Q 4.965087890625 1.289794921875 4.94091796875 1.2440185546875 Q 4.916748046875 1.1982421875 4.9039306640625 1.1480712890625 Q 4.89111328125 1.097900390625 4.8870849609375 1.0469970703125 Q 4.883056640625 0.99609375 4.883056640625 0.95068359375 L 4.883056640625 0.580078125 L 4.84716796875 0.580078125 Q 4.820068359375 0.580078125 4.8046875 0.5643310546875 Q 4.789306640625 0.548583984375 4.789306640625 0.529541015625 Q 4.789306640625 0.5068359375 4.809814453125 0.491455078125 Q 4.8955078125 0.429931640625 4.966552734375 0.3724365234375 Q 5.03759765625 0.31494140625 5.0888671875 0.26953125 Q 5.14892578125 0.216796875 5.196533203125 0.170654296875 Q 5.215576171875 0.151611328125 5.2353515625 0.1424560546875 Q 5.255126953125 0.13330078125 5.2734375 0.13330078125 Q 5.296142578125 0.13330078125 5.3115234375 0.148681640625 Q 5.326904296875 0.1640625 5.326904296875 0.1962890625 L 5.326904296875 0.43359375 L 5.505615234375 0.43359375 Q 5.514404296875 0.43359375 5.5264892578125 0.4346923828125 Q 5.53857421875 0.435791015625 5.549560546875 0.4423828125 Q 5.560546875 0.448974609375 5.5682373046875 0.4632568359375 Q 5.575927734375 0.4775390625 5.575927734375 0.50390625 Q 5.575927734375 0.532470703125 5.568603515625 0.5478515625 Q 5.561279296875 0.563232421875 5.55029296875 0.570556640625 Q 5.539306640625 0.577880859375 5.5272216796875 0.5789794921875 Q 5.51513671875 0.580078125 5.505615234375 0.580078125 L 5.326904296875 0.580078125 L 5.328369140625 1.01806640625 M 6.18310546875 0.539794921875 Q 6.199951171875 0.521484375 6.227783203125 0.49951171875 Q 6.255615234375 0.4775390625 6.296630859375 0.4581298828125 Q 6.337646484375 0.438720703125 6.3922119140625 0.425537109375 Q 6.44677734375 0.412353515625 6.517822265625 0.412353515625 Q 6.599853515625 0.412353515625 6.658447265625 0.4332275390625 Q 6.717041015625 0.4541015625 6.7576904296875 0.4892578125 Q 6.79833984375 0.5244140625 6.8228759765625 0.5701904296875 Q 6.847412109375 0.615966796875 6.860595703125 0.6661376953125 Q 6.873779296875 0.71630859375 6.878173828125 0.7672119140625 Q 6.882568359375 0.818115234375 6.882568359375 0.863525390625 L 6.882568359375 1.094970703125 Q 6.882568359375 1.12646484375 6.890625 1.14404296875 Q 6.898681640625 1.16162109375 6.9111328125 1.1707763671875 Q 6.923583984375 1.179931640625 6.9378662109375 1.18359375 Q 6.9521484375 1.187255859375 6.964599609375 1.1912841796875 Q 6.97705078125 1.1953125 6.985107421875 1.2022705078125 Q 6.9931640625 1.209228515625 6.9931640625 1.225341796875 Q 6.9931640625 1.308837890625 6.9071044921875 1.3458251953125 Q 6.821044921875 1.3828125 6.65771484375 1.3828125 Q 6.57861328125 1.3828125 6.517822265625 1.3740234375 Q 6.45703125 1.365234375 6.415283203125 1.3458251953125 Q 6.37353515625 1.326416015625 6.3519287109375 1.2967529296875 Q 6.330322265625 1.26708984375 6.330322265625 1.225341796875 Q 6.330322265625 1.209228515625 6.33837890625 1.2022705078125 Q 6.346435546875 1.1953125 6.35888671875 1.1912841796875 Q 6.371337890625 1.187255859375 6.38525390625 1.1839599609375 Q 6.399169921875 1.1806640625 6.41162109375 1.171875 Q 6.424072265625 1.1630859375 6.43212890625 1.146240234375 Q 6.440185546875 1.12939453125 6.440185546875 1.097900390625 L 6.440185546875 0.799072265625 Q 6.440185546875 0.752197265625 6.43359375 0.71484375 Q 6.427001953125 0.677490234375 6.410888671875 0.6522216796875 Q 6.394775390625 0.626953125 6.3673095703125 0.6134033203125 Q 6.33984375 0.599853515625 6.298828125 0.599853515625 Q 6.277587890625 0.599853515625 6.260009765625 0.605712890625 Q 6.242431640625 0.611572265625 6.2274169921875 0.6199951171875 Q 6.21240234375 0.62841796875 6.2010498046875 0.637939453125 Q 6.189697265625 0.6474609375 6.181640625 0.655517578125 L 6.181640625 1.100830078125 Q 6.181640625 1.130859375 6.189697265625 1.147705078125 Q 6.19775390625 1.16455078125 6.2098388671875 1.1729736328125 Q 6.221923828125 1.181396484375 6.23583984375 1.1846923828125 Q 6.249755859375 1.18798828125 6.2618408203125 1.191650390625 Q 6.27392578125 1.1953125 6.281982421875 1.2022705078125 Q 6.2900390625 1.209228515625 6.2900390625 1.225341796875 Q 6.2900390625 1.308837890625 6.20361328125 1.3458251953125 Q 6.1171875 1.3828125 5.953857421875 1.3828125 Q 5.79638671875 1.3828125 5.7117919921875 1.3458251953125 Q 5.627197265625 1.308837890625 5.627197265625 1.225341796875 Q 5.627197265625 1.209228515625 5.6348876953125 1.2022705078125 Q 5.642578125 1.1953125 5.6546630859375 1.191650390625 Q 5.666748046875 1.18798828125 5.6802978515625 1.18505859375 Q 5.69384765625 1.18212890625 5.7059326171875 1.1737060546875 Q 5.718017578125 1.165283203125 5.7257080078125 1.1495361328125 Q 5.7333984375 1.1337890625 5.7333984375 1.103759765625 L 5.7333984375 0.280517578125 Q 5.7333984375 0.25048828125 5.7257080078125 0.2347412109375 Q 5.718017578125 0.218994140625 5.7059326171875 0.2105712890625 Q 5.69384765625 0.2021484375 5.6802978515625 0.19921875 Q 5.666748046875 0.1962890625 5.6546630859375 0.192626953125 Q 5.642578125 0.18896484375 5.6348876953125 0.1820068359375 Q 5.627197265625 0.175048828125 5.627197265625 0.158935546875 Q 5.627197265625 0.075439453125 5.7117919921875 0.0384521484375 Q 5.79638671875 0.00146484375 5.953857421875 0.00146484375 Q 6.032958984375 0.00146484375 6.0787353515625 0.009521484375 Q 6.12451171875 0.017578125 6.14794921875 0.0369873046875 Q 6.17138671875 0.056396484375 6.177978515625 0.08935546875 Q 6.1845703125 0.122314453125 6.1845703125 0.172119140625 L 6.18310546875 0.539794921875 M 7.386474609375 0.76904296875 L 7.386474609375 1.072265625 Q 7.386474609375 1.105224609375 7.395263671875 1.12353515625 Q 7.404052734375 1.141845703125 7.417236328125 1.1513671875 Q 7.430419921875 1.160888671875 7.44580078125 1.16455078125 Q 7.461181640625 1.168212890625 7.474365234375 1.172607421875 Q 7.487548828125 1.177001953125 7.496337890625 1.1846923828125 Q 7.505126953125 1.1923828125 7.505126953125 1.2099609375 Q 7.505126953125 1.25537109375 7.4849853515625 1.288330078125 Q 7.46484375 1.3212890625 7.433349609375 1.3421630859375 Q 7.40185546875 1.363037109375 7.3626708984375 1.3729248046875 Q 7.323486328125 1.3828125 7.2861328125 1.3828125 Q 7.2421875 1.3828125 7.2008056640625 1.3729248046875 Q 7.159423828125 1.363037109375 7.1275634765625 1.3421630859375 Q 7.095703125 1.3212890625 7.0762939453125 1.288330078125 Q 7.056884765625 1.25537109375 7.056884765625 1.2099609375 Q 7.056884765625 1.1923828125 7.065673828125 1.1846923828125 Q 7.074462890625 1.177001953125 7.0872802734375 1.1729736328125 Q 7.10009765625 1.1689453125 7.1151123046875 1.165283203125 Q 7.130126953125 1.16162109375 7.1429443359375 1.1524658203125 Q 7.15576171875 1.143310546875 7.16455078125 1.125732421875 Q 7.17333984375 1.108154296875 7.17333984375 1.0751953125 L 7.17333984375 0.52294921875 Q 7.17333984375 0.49072265625 7.16455078125 0.4727783203125 Q 7.15576171875 0.454833984375 7.1429443359375 0.4456787109375 Q 7.130126953125 0.4365234375 7.1151123046875 0.432861328125 Q 7.10009765625 0.42919921875 7.0872802734375 0.4251708984375 Q 7.074462890625 0.421142578125 7.065673828125 0.4134521484375 Q 7.056884765625 0.40576171875 7.056884765625 0.38818359375 Q 7.056884765625 0.3427734375 7.078125 0.3101806640625 Q 7.099365234375 0.277587890625 7.1363525390625 0.2567138671875 Q 7.17333984375 0.23583984375 7.2227783203125 0.2259521484375 Q 7.272216796875 0.216064453125 7.329345703125 0.216064453125 Q 7.383544921875 0.216064453125 7.4205322265625 0.226318359375 Q 7.45751953125 0.236572265625 7.48681640625 0.2589111328125 Q 7.51611328125 0.28125 7.5421142578125 0.317138671875 Q 7.568115234375 0.35302734375 7.599609375 0.403564453125 L 7.7958984375 0.721435546875 L 7.97314453125 0.419677734375 Q 7.997314453125 0.3779296875 8.0247802734375 0.3409423828125 Q 8.05224609375 0.303955078125 8.0859375 0.276123046875 Q 8.11962890625 0.248291015625 8.161376953125 0.232177734375 Q 8.203125 0.216064453125 8.256591796875 0.216064453125 Q 8.345947265625 0.216064453125 8.410400390625 0.2259521484375 Q 8.474853515625 0.23583984375 8.5162353515625 0.2567138671875 Q 8.5576171875 0.277587890625 8.577392578125 0.3101806640625 Q 8.59716796875 0.3427734375 8.59716796875 0.38818359375 Q 8.59716796875 0.40576171875 8.58837890625 0.4134521484375 Q 8.57958984375 0.421142578125 8.56640625 0.4251708984375 Q 8.55322265625 0.42919921875 8.537841796875 0.432861328125 Q 8.5224609375 0.4365234375 8.50927734375 0.4456787109375 Q 8.49609375 0.454833984375 8.4873046875 0.4727783203125 Q 8.478515625 0.49072265625 8.478515625 0.52294921875 L 8.478515625 1.072265625 Q 8.478515625 1.105224609375 8.4873046875 1.12353515625 Q 8.49609375 1.141845703125 8.50927734375 1.1513671875 Q 8.5224609375 1.160888671875 8.537841796875 1.16455078125 Q 8.55322265625 1.168212890625 8.56640625 1.172607421875 Q 8.57958984375 1.177001953125 8.58837890625 1.1846923828125 Q 8.59716796875 1.1923828125 8.59716796875 1.2099609375 Q 8.59716796875 1.301513671875 8.502685546875 1.3421630859375 Q 8.408203125 1.3828125 8.2294921875 1.3828125 Q 8.14306640625 1.3828125 8.0760498046875 1.3729248046875 Q 8.009033203125 1.363037109375 7.9632568359375 1.3421630859375 Q 7.91748046875 1.3212890625 7.8936767578125 1.288330078125 Q 7.869873046875 1.25537109375 7.869873046875 1.2099609375 Q 7.869873046875 1.1923828125 7.878662109375 1.1846923828125 Q 7.887451171875 1.177001953125 7.9002685546875 1.1729736328125 Q 7.9130859375 1.1689453125 7.9281005859375 1.165283203125 Q 7.943115234375 1.16162109375 7.9559326171875 1.1524658203125 Q 7.96875 1.143310546875 7.9775390625 1.125732421875 Q 7.986328125 1.108154296875 7.986328125 1.0751953125 L 7.986328125 0.7705078125 L 7.72412109375 1.2099609375 Q 7.71533203125 1.226806640625 7.6962890625 1.226806640625 Q 7.679443359375 1.226806640625 7.6669921875 1.2099609375 L 7.386474609375 0.76904296875 M 8.767822265625 0.181640625 Q 8.767822265625 0.14501953125 8.7806396484375 0.1175537109375 Q 8.79345703125 0.090087890625 8.8135986328125 0.0699462890625 Q 8.833740234375 0.0498046875 8.8597412109375 0.0362548828125 Q 8.8857421875 0.022705078125 8.912109375 0.0146484375 Q 8.9384765625 0.006591796875 8.9630126953125 0.0032958984375 Q 8.987548828125 0 9.005859375 0 Q 9.025634765625 0 9.0509033203125 0.0032958984375 Q 9.076171875 0.006591796875 9.1025390625 0.0146484375 Q 9.12890625 0.022705078125 9.154541015625 0.0362548828125 Q 9.18017578125 0.0498046875 9.2003173828125 0.0699462890625 Q 9.220458984375 0.090087890625 9.2325439453125 0.1175537109375 Q 9.24462890625 0.14501953125 9.24462890625 0.181640625 Q 9.24462890625 0.217529296875 9.2325439453125 0.245361328125 Q 9.220458984375 0.273193359375 9.2003173828125 0.29296875 Q 9.18017578125 0.312744140625 9.154541015625 0.3262939453125 Q 9.12890625 0.33984375 9.1025390625 0.347900390625 Q 9.076171875 0.35595703125 9.0509033203125 0.3592529296875 Q 9.025634765625 0.362548828125 9.005859375 0.362548828125 Q 8.987548828125 0.362548828125 8.9630126953125 0.3592529296875 Q 8.9384765625 0.35595703125 8.912109375 0.347900390625 Q 8.8857421875 0.33984375 8.8597412109375 0.3262939453125 Q 8.833740234375 0.312744140625 8.8135986328125 0.29296875 Q 8.79345703125 0.273193359375 8.7806396484375 0.2457275390625 Q 8.767822265625 0.21826171875 8.767822265625 0.181640625 M 9.221923828125 1.103759765625 Q 9.221923828125 1.133056640625 9.22998046875 1.149169921875 Q 9.238037109375 1.165283203125 9.2501220703125 1.1737060546875 Q 9.26220703125 1.18212890625 9.276123046875 1.18505859375 Q 9.2900390625 1.18798828125 9.3021240234375 1.191650390625 Q 9.314208984375 1.1953125 9.322265625 1.2022705078125 Q 9.330322265625 1.209228515625 9.330322265625 1.225341796875 Q 9.330322265625 1.308837890625 9.243896484375 1.3458251953125 Q 9.157470703125 1.3828125 8.994140625 1.3828125 Q 8.9150390625 1.3828125 8.854248046875 1.3740234375 Q 8.79345703125 1.365234375 8.751708984375 1.3458251953125 Q 8.7099609375 1.326416015625 8.6883544921875 1.2967529296875 Q 8.666748046875 1.26708984375 8.666748046875 1.225341796875 Q 8.666748046875 1.209228515625 8.6748046875 1.2022705078125 Q 8.682861328125 1.1953125 8.694580078125 1.191650390625 Q 8.706298828125 1.18798828125 8.72021484375 1.18505859375 Q 8.734130859375 1.18212890625 8.745849609375 1.1737060546875 Q 8.757568359375 1.165283203125 8.765625 1.1495361328125 Q 8.773681640625 1.1337890625 8.773681640625 1.103759765625 L 8.773681640625 0.712646484375 Q 8.773681640625 0.683349609375 8.765625 0.667236328125 Q 8.757568359375 0.651123046875 8.745849609375 0.6427001953125 Q 8.734130859375 0.63427734375 8.72021484375 0.63134765625 Q 8.706298828125 0.62841796875 8.694580078125 0.624755859375 Q 8.682861328125 0.62109375 8.6748046875 0.6141357421875 Q 8.666748046875 0.607177734375 8.666748046875 0.591064453125 Q 8.666748046875 0.54931640625 8.6883544921875 0.5196533203125 Q 8.7099609375 0.489990234375 8.751708984375 0.4705810546875 Q 8.79345703125 0.451171875 8.854248046875 0.4423828125 Q 8.9150390625 0.43359375 8.994140625 0.43359375 Q 9.0732421875 0.43359375 9.11865234375 0.441650390625 Q 9.1640625 0.44970703125 9.1871337890625 0.4691162109375 Q 9.210205078125 0.488525390625 9.216064453125 0.521484375 Q 9.221923828125 0.554443359375 9.221923828125 0.604248046875 L 9.221923828125 1.103759765625 M 9.917724609375 1.01806640625 Q 9.917724609375 1.042236328125 9.919189453125 1.0645751953125 Q 9.920654296875 1.0869140625 9.927978515625 1.1044921875 Q 9.935302734375 1.1220703125 9.95068359375 1.13232421875 Q 9.966064453125 1.142578125 9.9931640625 1.142578125 Q 10.03125 1.142578125 10.0594482421875 1.1326904296875 Q 10.087646484375 1.122802734375 10.11767578125 1.106689453125 Q 10.12939453125 1.10009765625 10.1396484375 1.10009765625 Q 10.156494140625 1.10009765625 10.1663818359375 1.11474609375 Q 10.17626953125 1.12939453125 10.17626953125 1.147705078125 Q 10.17626953125 1.16015625 10.172607421875 1.168212890625 Q 10.1513671875 1.222412109375 10.1180419921875 1.265625 Q 10.084716796875 1.308837890625 10.0411376953125 1.3388671875 Q 9.99755859375 1.368896484375 9.945556640625 1.385009765625 Q 9.8935546875 1.401123046875 9.834228515625 1.401123046875 Q 9.752197265625 1.401123046875 9.693603515625 1.3802490234375 Q 9.635009765625 1.359375 9.5947265625 1.3245849609375 Q 9.554443359375 1.289794921875 9.5302734375 1.2440185546875 Q 9.506103515625 1.1982421875 9.4932861328125 1.1480712890625 Q 9.48046875 1.097900390625 9.4764404296875 1.0469970703125 Q 9.472412109375 0.99609375 9.472412109375 0.95068359375 L 9.472412109375 0.580078125 L 9.4365234375 0.580078125 Q 9.409423828125 0.580078125 9.39404296875 0.5643310546875 Q 9.378662109375 0.548583984375 9.378662109375 0.529541015625 Q 9.378662109375 0.5068359375 9.399169921875 0.491455078125 Q 9.48486328125 0.429931640625 9.555908203125 0.3724365234375 Q 9.626953125 0.31494140625 9.67822265625 0.26953125 Q 9.73828125 0.216796875 9.785888671875 0.170654296875 Q 9.804931640625 0.151611328125 9.82470703125 0.1424560546875 Q 9.844482421875 0.13330078125 9.86279296875 0.13330078125 Q 9.885498046875 0.13330078125 9.90087890625 0.148681640625 Q 9.916259765625 0.1640625 9.916259765625 0.1962890625 L 9.916259765625 0.43359375 L 10.094970703125 0.43359375 Q 10.103759765625 0.43359375 10.1158447265625 0.4346923828125 Q 10.1279296875 0.435791015625 10.138916015625 0.4423828125 Q 10.14990234375 0.448974609375 10.1575927734375 0.4632568359375 Q 10.165283203125 0.4775390625 10.165283203125 0.50390625 Q 10.165283203125 0.532470703125 10.157958984375 0.5478515625 Q 10.150634765625 0.563232421875 10.1396484375 0.570556640625 Q 10.128662109375 0.577880859375 10.1165771484375 0.5789794921875 Q 10.1044921875 0.580078125 10.094970703125 0.580078125 L 9.916259765625 0.580078125 L 9.917724609375 1.01806640625 M 10.76220703125 1.100830078125 Q 10.76220703125 1.130859375 10.770263671875 1.147705078125 Q 10.7783203125 1.16455078125 10.7904052734375 1.1729736328125 Q 10.802490234375 1.181396484375 10.81640625 1.1846923828125 Q 10.830322265625 1.18798828125 10.8424072265625 1.191650390625 Q 10.8544921875 1.1953125 10.862548828125 1.2022705078125 Q 10.87060546875 1.209228515625 10.87060546875 1.225341796875 Q 10.87060546875 1.308837890625 10.7841796875 1.3458251953125 Q 10.69775390625 1.3828125 10.534423828125 1.3828125 Q 10.455322265625 1.3828125 10.39453125 1.3740234375 Q 10.333740234375 1.365234375 10.2919921875 1.3458251953125 Q 10.250244140625 1.326416015625 10.2286376953125 1.2967529296875 Q 10.20703125 1.26708984375 10.20703125 1.225341796875 Q 10.20703125 1.209228515625 10.215087890625 1.2022705078125 Q 10.22314453125 1.1953125 10.23486328125 1.191650390625 Q 10.24658203125 1.18798828125 10.260498046875 1.18505859375 Q 10.2744140625 1.18212890625 10.2861328125 1.1737060546875 Q 10.2978515625 1.165283203125 10.305908203125 1.1495361328125 Q 10.31396484375 1.1337890625 10.31396484375 1.103759765625 L 10.31396484375 0.712646484375 Q 10.31396484375 0.683349609375 10.305908203125 0.667236328125 Q 10.2978515625 0.651123046875 10.2861328125 0.6427001953125 Q 10.2744140625 0.63427734375 10.260498046875 0.63134765625 Q 10.24658203125 0.62841796875 10.23486328125 0.624755859375 Q 10.22314453125 0.62109375 10.215087890625 0.6141357421875 Q 10.20703125 0.607177734375 10.20703125 0.591064453125 Q 10.20703125 0.54931640625 10.2286376953125 0.5196533203125 Q 10.250244140625 0.489990234375 10.2919921875 0.4705810546875 Q 10.333740234375 0.451171875 10.39453125 0.4423828125 Q 10.455322265625 0.43359375 10.534423828125 0.43359375 Q 10.60693359375 0.43359375 10.6505126953125 0.4478759765625 Q 10.694091796875 0.462158203125 10.718994140625 0.489990234375 Q 10.739501953125 0.476806640625 10.761474609375 0.4647216796875 Q 10.783447265625 0.45263671875 10.808349609375 0.4434814453125 Q 10.833251953125 0.434326171875 10.862548828125 0.42919921875 Q 10.891845703125 0.424072265625 10.927001953125 0.424072265625 Q 10.970947265625 0.424072265625 11.0115966796875 0.4332275390625 Q 11.05224609375 0.4423828125 11.083740234375 0.4632568359375 Q 11.115234375 0.484130859375 11.1339111328125 0.5174560546875 Q 11.152587890625 0.55078125 11.152587890625 0.599853515625 Q 11.152587890625 0.632080078125 11.1416015625 0.662841796875 Q 11.130615234375 0.693603515625 11.1090087890625 0.7174072265625 Q 11.08740234375 0.7412109375 11.0548095703125 0.755859375 Q 11.022216796875 0.7705078125 10.979736328125 0.7705078125 Q 10.937255859375 0.7705078125 10.9130859375 0.758056640625 Q 10.888916015625 0.74560546875 10.875732421875 0.727294921875 Q 10.862548828125 0.708984375 10.8563232421875 0.6873779296875 Q 10.85009765625 0.665771484375 10.8431396484375 0.6474609375 Q 10.836181640625 0.629150390625 10.8248291015625 0.61669921875 Q 10.8134765625 0.604248046875 10.790771484375 0.604248046875 Q 10.76806640625 0.604248046875 10.7607421875 0.6097412109375 Q 10.75341796875 0.615234375 10.75341796875 0.62548828125 Q 10.75341796875 0.638671875 10.758544921875 0.6591796875 Q 10.763671875 0.6796875 10.763671875 0.708984375 L 10.76220703125 1.100830078125 M 11.67919921875 1.232666015625 Q 11.703369140625 1.232666015625 11.7183837890625 1.2249755859375 Q 11.7333984375 1.21728515625 11.741455078125 1.2030029296875 Q 11.74951171875 1.188720703125 11.7520751953125 1.1678466796875 Q 11.754638671875 1.14697265625 11.754638671875 1.12060546875 Q 11.754638671875 1.097900390625 11.75390625 1.062744140625 Q 11.753173828125 1.027587890625 11.75244140625 0.993896484375 Q 11.7509765625 0.954345703125 11.750244140625 0.911865234375 Q 11.739990234375 0.910400390625 11.7308349609375 0.9093017578125 Q 11.7216796875 0.908203125 11.712890625 0.908203125 Q 11.675537109375 0.908203125 11.6502685546875 0.9232177734375 Q 11.625 0.938232421875 11.609619140625 0.9649658203125 Q 11.59423828125 0.99169921875 11.5880126953125 1.0279541015625 Q 11.581787109375 1.064208984375 11.581787109375 1.106689453125 Q 11.581787109375 1.13232421875 11.584716796875 1.1553955078125 Q 11.587646484375 1.178466796875 11.597900390625 1.1956787109375 Q 11.608154296875 1.212890625 11.6275634765625 1.2227783203125 Q 11.64697265625 1.232666015625 11.67919921875 1.232666015625 M 12.0322265625 1.3828125 Q 11.994873046875 1.3828125 11.9578857421875 1.3787841796875 Q 11.9208984375 1.374755859375 11.8875732421875 1.3623046875 Q 11.854248046875 1.349853515625 11.826416015625 1.326416015625 Q 11.798583984375 1.302978515625 11.77880859375 1.26416015625 Q 11.76416015625 1.298583984375 11.7315673828125 1.32421875 Q 11.698974609375 1.349853515625 11.6575927734375 1.3670654296875 Q 11.6162109375 1.38427734375 11.5704345703125 1.3927001953125 Q 11.524658203125 1.401123046875 11.48291015625 1.401123046875 Q 11.408935546875 1.401123046875 11.353271484375 1.383544921875 Q 11.297607421875 1.365966796875 11.259521484375 1.3333740234375 Q 11.221435546875 1.30078125 11.202392578125 1.25537109375 Q 11.183349609375 1.2099609375 11.183349609375 1.153564453125 Q 11.183349609375 1.0869140625 11.2056884765625 1.0272216796875 Q 11.22802734375 0.967529296875 11.2818603515625 0.9228515625 Q 11.335693359375 0.878173828125 11.42578125 0.8521728515625 Q 11.515869140625 0.826171875 11.6513671875 0.826171875 L 11.751708984375 0.826171875 Q 11.751708984375 0.744873046875 11.7462158203125 0.69140625 Q 11.74072265625 0.637939453125 11.72900390625 0.6064453125 Q 11.71728515625 0.574951171875 11.69970703125 0.5625 Q 11.68212890625 0.550048828125 11.6572265625 0.550048828125 Q 11.62939453125 0.550048828125 11.6107177734375 0.56689453125 Q 11.592041015625 0.583740234375 11.5806884765625 0.6156005859375 Q 11.5693359375 0.6474609375 11.5645751953125 0.6925048828125 Q 11.559814453125 0.737548828125 11.559814453125 0.794677734375 Q 11.5283203125 0.794677734375 11.4935302734375 0.7935791015625 Q 11.458740234375 0.79248046875 11.4246826171875 0.7880859375 Q 11.390625 0.78369140625 11.3602294921875 0.7745361328125 Q 11.329833984375 0.765380859375 11.306396484375 0.7496337890625 Q 11.282958984375 0.73388671875 11.26904296875 0.709716796875 Q 11.255126953125 0.685546875 11.255126953125 0.651123046875 Q 11.255126953125 0.602783203125 11.2803955078125 0.5595703125 Q 11.3056640625 0.516357421875 11.3580322265625 0.4837646484375 Q 11.410400390625 0.451171875 11.490966796875 0.4317626953125 Q 11.571533203125 0.412353515625 11.682861328125 0.412353515625 Q 11.8125 0.412353515625 11.90625 0.438720703125 Q 12 0.465087890625 12.0604248046875 0.517822265625 Q 12.120849609375 0.570556640625 12.1497802734375 0.6507568359375 Q 12.1787109375 0.73095703125 12.1787109375 0.838623046875 L 12.1787109375 1.097900390625 Q 12.1787109375 1.12939453125 12.1871337890625 1.14697265625 Q 12.195556640625 1.16455078125 12.2076416015625 1.1737060546875 Q 12.2197265625 1.182861328125 12.234375 1.1865234375 Q 12.2490234375 1.190185546875 12.2611083984375 1.1942138671875 Q 12.273193359375 1.1982421875 12.2816162109375 1.2052001953125 Q 12.2900390625 1.212158203125 12.2900390625 1.228271484375 Q 12.2900390625 1.301513671875 12.2244873046875 1.3421630859375 Q 12.158935546875 1.3828125 12.0322265625 1.3828125" fill="#1c3423" fill-rule="nonzero"></path></g><g><path d=" M 0.23274739583333334 2.3872167968749993 Q 0.13427734375 2.3872167968749993 0.13427734375 2.3505957031249993 Q 0.13427734375 2.340423177083333 0.1513671875 2.337371419270833 Q 0.16845703125 2.334319661458333 0.185546875 2.3310644531249993 Q 0.20263671875 2.327809244791666 0.20263671875 2.317229817708333 L 0.20263671875 1.8667903645833326 L 0.08341471354166667 1.8671972656249993 Q 0.0634765625 1.8671972656249993 0.0469970703125 1.9123632812499993 Q 0.030517578125 1.9575292968749993 0.011393229166666668 1.9575292968749993 Q -0.020345052083333336 1.9575292968749993 -0.020345052083333336 1.9200944010416658 Q -0.020345052083333336 1.8680110677083326 -0.0026448567708333335 1.8417659505208326 Q 0.015055338541666668 1.8155208333333326 0.06144205729166667 1.8155208333333326 L 0.2982584635416667 1.8155208333333326 Q 0.42724609375 1.8155208333333326 0.45857747395833337 1.8163346354166658 Q 0.50048828125 1.8183691406249993 0.5110677083333334 1.8871354166666658 Q 0.513916015625 1.9042252604166658 0.513916015625 1.9225358072916658 Q 0.513916015625 1.9575292968749993 0.482177734375 1.9575292968749993 Q 0.46142578125 1.9575292968749993 0.44759114583333337 1.9123632812499993 Q 0.4423014322916667 1.8952734374999993 0.4325358072916667 1.8812353515624993 Q 0.4227701822916667 1.8671972656249993 0.41015625 1.8671972656249993 L 0.2909342447916667 1.8667903645833326 L 0.2909342447916667 2.317229817708333 Q 0.2909342447916667 2.329029947916666 0.3257242838541667 2.334930013020833 Q 0.3605143229166667 2.3408300781249993 0.3605143229166667 2.3505957031249993 Q 0.3605143229166667 2.364837239583333 0.3533935546875 2.3701269531249993 Q 0.34627278645833337 2.375416666666666 0.34138997395833337 2.378264973958333 Q 0.33650716145833337 2.3811132812499993 0.32735188802083337 2.382740885416666 Q 0.31819661458333337 2.384368489583333 0.3116861979166667 2.3853857421874993 Q 0.30517578125 2.386402994791666 0.2933756510416667 2.386809895833333 Q 0.28157552083333337 2.3872167968749993 0.2750651041666667 2.3872167968749993 Q 0.25390625 2.3872167968749993 0.23274739583333334 2.3872167968749993 M 0.6404622395833334 2.3872167968749993 L 0.60546875 2.387623697916666 Q 0.5521647135416667 2.387623697916666 0.53955078125 2.3713476562499993 Q 0.5338541666666667 2.3640234374999993 0.5338541666666667 2.3536474609374993 Q 0.5338541666666667 2.3432714843749993 0.5419921875 2.339202473958333 Q 0.5501302083333334 2.335133463541666 0.5600992838541667 2.3347265624999993 Q 0.570068359375 2.334319661458333 0.5782063802083334 2.328419596354166 Q 0.5863444010416667 2.3225195312499993 0.5863444010416667 2.309498697916666 L 0.5863444010416667 2.108489583333333 Q 0.5863444010416667 2.0722753906249993 0.5775960286458334 2.0637304687499993 Q 0.56884765625 2.0551855468749993 0.5629475911458334 2.0527441406249993 Q 0.5570475260416667 2.0503027343749993 0.54443359375 2.0466406249999993 Q 0.5318196614583334 2.0429785156249993 0.5238850911458334 2.0393164062499993 Q 0.5159505208333334 2.0356542968749993 0.5159505208333334 2.0283300781249993 Q 0.5159505208333334 1.9957779947916658 0.6034342447916667 1.9957779947916658 Q 0.6404622395833334 1.9957779947916658 0.6504313151041667 2.008595377604166 Q 0.660400390625 2.021412760416666 0.660400390625 2.067799479166666 Q 0.6742350260416667 2.032805989583333 0.7061767578125 2.012867838541666 Q 0.7381184895833334 1.9929296874999993 0.7716878255208334 1.9929296874999993 Q 0.8052571614583334 1.9929296874999993 0.8270263671875 2.007374674479166 Q 0.8487955729166667 2.021819661458333 0.8487955729166667 2.043995768229166 Q 0.8487955729166667 2.0661718749999993 0.8345540364583334 2.079396158854166 Q 0.8203125 2.092620442708333 0.799560546875 2.092620442708333 Q 0.77880859375 2.092620442708333 0.7639567057291667 2.081634114583333 Q 0.7491048177083334 2.070647786458333 0.74462890625 2.053151041666666 Q 0.7340494791666667 2.0515234374999993 0.7271321614583334 2.0515234374999993 Q 0.6636555989583334 2.0515234374999993 0.6636555989583334 2.197600911458333 L 0.6636555989583334 2.309498697916666 Q 0.6636555989583334 2.333098958333333 0.6899007161458334 2.334523111979166 Q 0.7161458333333334 2.3359472656249993 0.7161458333333334 2.3554785156249993 Q 0.7161458333333334 2.377858072916666 0.6917317708333334 2.383147786458333 Q 0.6730143229166667 2.3872167968749993 0.6404622395833334 2.3872167968749993 M 0.9254964192708334 2.117237955729166 Q 0.9065755208333334 2.1052343749999993 0.9065755208333334 2.085906575520833 Q 0.9065755208333334 2.066578776041666 0.9175618489583334 2.049488932291666 Q 0.9285481770833334 2.032399088541666 0.946044921875 2.0216162109374993 Q 0.9635416666666666 2.010833333333333 0.9867350260416666 2.003509114583333 Q 1.029052734375 1.9900813802083326 1.077880859375 1.9900813802083326 Q 1.1600748697916667 1.9900813802083326 1.1973063151041667 2.0264990234374993 Q 1.2345377604166667 2.062916666666666 1.2345377604166667 2.1467382812499993 L 1.234130859375 2.266774088541666 Q 1.234130859375 2.3103124999999993 1.2451171875 2.3212988281249993 Q 1.2479654947916667 2.324147135416666 1.2630208333333335 2.3286230468749993 Q 1.3045247395833335 2.341643880208333 1.3045247395833335 2.348561197916666 Q 1.3045247395833335 2.391285807291666 1.217041015625 2.391285807291666 Q 1.18408203125 2.391285807291666 1.1741129557291667 2.376637369791666 Q 1.1641438802083335 2.361988932291666 1.163330078125 2.323333333333333 Q 1.14501953125 2.356292317708333 1.1075846354166667 2.376637369791666 Q 1.0701497395833333 2.3969824218749993 1.0274251302083333 2.3969824218749993 Q 0.9847005208333334 2.3969824218749993 0.9549967447916666 2.3859960937499993 Q 0.92529296875 2.3750097656249993 0.9067789713541666 2.350392252604166 Q 0.8882649739583334 2.325774739583333 0.8882649739583334 2.297291666666666 Q 0.8882649739583334 2.2688085937499993 0.894775390625 2.251515299479166 Q 0.9012858072916666 2.234222005208333 0.9110514322916666 2.2224218749999993 Q 0.9208170572916666 2.210621744791666 0.9377034505208334 2.201263020833333 Q 0.95458984375 2.1919042968749993 0.96923828125 2.1864111328124993 Q 0.98388671875 2.1809179687499993 1.007080078125 2.176442057291666 Q 1.041259765625 2.1699316406249993 1.064453125 2.167286783854166 Q 1.087646484375 2.164641927083333 1.0884602864583333 2.164235026041666 Q 1.0909016927083333 2.1638281249999993 1.1163330078125 2.161183268229166 Q 1.1417643229166667 2.158538411458333 1.1564127604166667 2.1504003906249993 Q 1.1564127604166667 2.073089192708333 1.1356608072916667 2.049488932291666 Q 1.1173502604166667 2.029143880208333 1.075439453125 2.029143880208333 Q 1.0335286458333333 2.029143880208333 1.0125732421875 2.050506184895833 Q 0.9916178385416667 2.071868489583333 0.9916178385416667 2.118255208333333 L 0.9920247395833334 2.1272070312499993 Q 0.9749348958333334 2.129241536458333 0.9596761067708334 2.129241536458333 Q 0.9444173177083334 2.129241536458333 0.9254964192708334 2.117237955729166 M 1.1564127604166667 2.1870214843749993 Q 1.1287434895833335 2.197194010416666 1.0939534505208333 2.2010595703124993 Q 1.0591634114583333 2.204925130208333 1.0392252604166667 2.2102148437499993 Q 1.019287109375 2.215504557291666 1.005859375 2.223235677083333 Q 0.9749348958333334 2.241139322916666 0.9749348958333334 2.2846777343749993 Q 0.9749348958333334 2.354664713541666 1.0563151041666667 2.354664713541666 Q 1.126708984375 2.354664713541666 1.1454264322916667 2.287526041666666 Q 1.1564127604166667 2.2492773437499993 1.1564127604166667 2.1870214843749993 M 1.8310546875000002 2.3872167968749993 L 1.796061197916667 2.387623697916666 Q 1.7427571614583335 2.387623697916666 1.730143229166667 2.3713476562499993 Q 1.7244466145833335 2.3640234374999993 1.7244466145833335 2.3536474609374993 Q 1.7244466145833335 2.3432714843749993 1.732584635416667 2.339202473958333 Q 1.7407226562500002 2.335133463541666 1.7506917317708335 2.3347265624999993 Q 1.760660807291667 2.334319661458333 1.7687988281250002 2.328419596354166 Q 1.7769368489583335 2.3225195312499993 1.7769368489583335 2.309498697916666 L 1.7769368489583335 1.8615006510416658 Q 1.7769368489583335 1.8541764322916658 1.7474365234375002 1.8450211588541658 Q 1.717936197916667 1.8358658854166658 1.6906738281250002 1.8358658854166658 Q 1.632486979166667 1.8358658854166658 1.6023763020833335 1.8572281901041658 Q 1.5722656250000002 1.8785904947916658 1.5722656250000002 1.9074804687499993 Q 1.5722656250000002 1.9648535156249993 1.6206868489583335 1.9982194010416658 Q 1.6292317708333335 2.0039160156249993 1.644083658854167 2.0124609374999993 Q 1.6589355468750002 2.0210058593749993 1.668497721354167 2.0271093749999993 Q 1.6780598958333335 2.0332128906249993 1.6882324218750002 2.042164713541666 Q 1.7085774739583335 2.0600683593749993 1.7085774739583335 2.082854817708333 Q 1.7085774739583335 2.105641276041666 1.6933186848958335 2.118255208333333 Q 1.6780598958333335 2.1308691406249993 1.6566975911458335 2.1308691406249993 Q 1.6353352864583335 2.1308691406249993 1.626383463541667 2.1272070312499993 Q 1.6235351562500002 2.081227213541666 1.607462565104167 2.056609700520833 Q 1.5913899739583335 2.0319921874999993 1.5535481770833335 2.0319921874999993 Q 1.4916992187500002 2.0319921874999993 1.4565022786458335 2.071461588541666 Q 1.4213053385416667 2.110930989583333 1.4213053385416667 2.177662760416666 Q 1.4213053385416667 2.2443945312499993 1.4662679036458335 2.293629557291666 Q 1.5112304687500002 2.342864583333333 1.5795898437500002 2.342864583333333 Q 1.6097005208333335 2.342864583333333 1.6540527343750002 2.314381510416666 Q 1.666666666666667 2.3078710937499993 1.6756184895833335 2.3078710937499993 Q 1.694742838541667 2.3078710937499993 1.694742838541667 2.3249609374999993 Q 1.694742838541667 2.334319661458333 1.6890462239583335 2.340423177083333 Q 1.6426595052083335 2.3982031249999993 1.5496826171875002 2.3982031249999993 Q 1.4567057291666667 2.3982031249999993 1.3975016276041667 2.3432714843749993 Q 1.3382975260416667 2.2883398437499993 1.3382975260416667 2.1980078124999993 Q 1.3382975260416667 2.119069010416666 1.3871256510416667 2.0600683593749993 Q 1.4111328125000002 2.031178385416666 1.4499918619791667 2.014088541666666 Q 1.4888509114583335 1.9969986979166658 1.5372721354166667 1.9969986979166658 Q 1.5535481770833335 1.9969986979166658 1.5620930989583335 1.9978124999999993 Q 1.5071614583333335 1.9534602864583326 1.5071614583333335 1.8987320963541658 Q 1.5071614583333335 1.8440039062499993 1.5612792968750002 1.8045345052083326 Q 1.615397135416667 1.7650651041666658 1.692301432291667 1.7650651041666658 Q 1.7500813802083335 1.7650651041666658 1.7982991536458335 1.7961930338541658 Q 1.8465169270833335 1.8273209635416658 1.854654947916667 1.8716731770833326 L 1.854654947916667 2.170745442708333 Q 1.8684895833333335 2.1601660156249993 1.924235026041667 2.1198828124999993 Q 2.032877604166667 2.040944010416666 2.032877604166667 2.034026692708333 Q 2.032877604166667 2.0246679687499993 2.001953125 2.0149023437499993 Q 2.003173828125 1.9778743489583326 2.0703125 1.9778743489583326 L 2.125651041666667 1.9778743489583326 Q 2.228190104166667 1.9778743489583326 2.228190104166667 1.9892675781249993 Q 2.228190104166667 1.9945572916666658 2.216593424479167 2.006153971354166 Q 2.204996744791667 2.017750651041666 2.192789713541667 2.0246679687499993 Q 2.165934244791667 2.0246679687499993 2.131144205729167 2.0429785156249993 Q 2.096354166666667 2.0612890624999993 2.0454915364583335 2.0991308593749993 L 1.9750976562500002 2.151214192708333 L 2.103271484375 2.286305338541666 Q 2.126871744791667 2.3103124999999993 2.1453857421875 2.3231298828124993 Q 2.1638997395833335 2.3359472656249993 2.1797688802083335 2.339812825520833 Q 2.1956380208333335 2.343678385416666 2.2035725911458335 2.345509440104166 Q 2.2115071614583335 2.347340494791666 2.2151692708333335 2.3481542968749993 Q 2.2188313802083335 2.348968098958333 2.224527994791667 2.3512060546874993 Q 2.230224609375 2.353444010416666 2.232666015625 2.355885416666666 Q 2.239990234375 2.362395833333333 2.239990234375 2.371754557291666 Q 2.239990234375 2.391285807291666 2.176920572916667 2.391285807291666 L 2.156982421875 2.391285807291666 Q 2.118326822916667 2.391285807291666 2.1040852864583335 2.3878271484374993 Q 2.08984375 2.384368489583333 2.0735677083333335 2.3689062499999993 Q 2.012939453125 2.3115332031249993 1.9234212239583335 2.1833593749999993 L 1.8542480468750002 2.230152994791666 L 1.8542480468750002 2.309498697916666 Q 1.8542480468750002 2.333098958333333 1.8804931640625002 2.334523111979166 Q 1.9067382812500002 2.3359472656249993 1.9067382812500002 2.3554785156249993 Q 1.9067382812500002 2.377858072916666 1.8819173177083335 2.383147786458333 Q 1.8640136718750002 2.3872167968749993 1.8310546875000002 2.3872167968749993 M 2.3105875651041665 2.374195963541666 Q 2.2932942708333335 2.361175130208333 2.2932942708333335 2.340626627604166 Q 2.2932942708333335 2.3200781249999993 2.31201171875 2.306243489583333 Q 2.3307291666666665 2.292408854166666 2.349853515625 2.292408854166666 Q 2.3689778645833335 2.292408854166666 2.3883056640625 2.305022786458333 Q 2.4076334635416665 2.3176367187499993 2.4076334635416665 2.335133463541666 Q 2.4076334635416665 2.371754557291666 2.37060546875 2.383961588541666 Q 2.3612467447916665 2.3872167968749993 2.3445638020833335 2.3872167968749993 Q 2.327880859375 2.3872167968749993 2.3105875651041665 2.374195963541666 M 2.6485188802083335 1.8637386067708326 Q 2.6314290364583335 1.8602799479166658 2.6314290364583335 1.8519384765624993 Q 2.6314290364583335 1.8435970052083326 2.6369222005208335 1.8372900390624993 Q 2.6424153645833335 1.8309830729166658 2.6534016927083335 1.8271175130208326 Q 2.6643880208333335 1.8232519531249993 2.6755777994791665 1.8208105468749993 Q 2.686767578125 1.8183691406249993 2.703857421875 1.8175553385416658 Q 2.7278645833333335 1.8159277343749993 2.7620442708333335 1.8159277343749993 L 2.8328450520833335 1.8159277343749993 Q 2.9654947916666665 1.8159277343749993 3.0277506510416665 1.8305761718749993 Q 3.0928548177083335 1.8452246093749993 3.12255859375 1.8737076822916658 Q 3.1591796875 1.9087011718749993 3.1591796875 1.9640397135416658 Q 3.1591796875 2.045826822916666 3.1099446614583335 2.086110026041666 Q 3.0757649739583335 2.1137792968749993 3.0419921875 2.1229345703124993 Q 3.0082194010416665 2.1320898437499993 2.9854329427083335 2.135955403645833 Q 2.962646484375 2.139820963541666 2.93212890625 2.142262369791666 Q 2.8849283854166665 2.1455175781249993 2.8169759114583335 2.1455175781249993 L 2.7913411458333335 2.1455175781249993 L 2.7913411458333335 2.317229817708333 Q 2.7913411458333335 2.3249609374999993 2.8082275390625 2.330047200520833 Q 2.8251139322916665 2.335133463541666 2.8420003255208335 2.339812825520833 Q 2.85888671875 2.3444921874999993 2.85888671875 2.3505957031249993 Q 2.85888671875 2.3640234374999993 2.8523763020833335 2.3719580078124993 Q 2.8458658854166665 2.3798925781249993 2.828369140625 2.383147786458333 Q 2.8068033854166665 2.386809895833333 2.7463785807291665 2.386809895833333 Q 2.6859537760416665 2.386809895833333 2.6729329427083335 2.385182291666666 Q 2.6318359375 2.3798925781249993 2.6314290364583335 2.354664713541666 Q 2.6314290364583335 2.3359472656249993 2.6654052734375 2.3347265624999993 Q 2.6993815104166665 2.3335058593749993 2.6993815104166665 2.317229817708333 L 2.6993815104166665 1.8851009114583326 Q 2.6993815104166665 1.8753352864583326 2.6824951171875 1.8712662760416658 Q 2.6656087239583335 1.8671972656249993 2.6485188802083335 1.8637386067708326 M 3.0672200520833335 1.9888606770833326 Q 3.0672200520833335 1.8643489583333326 2.8759765625 1.8643489583333326 L 2.8584798177083335 1.8643489583333326 Q 2.8206380208333335 1.8643489583333326 2.8104654947916665 1.8716731770833326 Q 2.7994791666666665 1.8794042968749993 2.7978515625 1.8838802083333326 Q 2.7962239583333335 1.8883561197916658 2.794189453125 1.8940527343749993 Q 2.7913411458333335 1.9030045572916658 2.7913411458333335 1.9221289062499993 L 2.7913411458333335 2.097096354166666 Q 2.8059895833333335 2.098317057291666 2.8399658203125 2.098317057291666 Q 2.8739420572916665 2.098317057291666 2.9014078776041665 2.096486002604166 Q 2.9288736979166665 2.094654947916666 2.9555257161458335 2.090179036458333 Q 2.982177734375 2.0857031249999993 3.001708984375 2.077565104166666 Q 3.021240234375 2.069427083333333 3.0367024739583335 2.0576269531249993 Q 3.0672200520833335 2.034026692708333 3.0672200520833335 1.9888606770833326 M 3.3154296875 2.3872167968749993 L 3.280436197916667 2.387623697916666 Q 3.2271321614583335 2.387623697916666 3.214518229166667 2.3713476562499993 Q 3.2088216145833335 2.3640234374999993 3.2088216145833335 2.3536474609374993 Q 3.2088216145833335 2.3432714843749993 3.216959635416667 2.339202473958333 Q 3.22509765625 2.335133463541666 3.23486328125 2.3347265624999993 Q 3.24462890625 2.334319661458333 3.2527669270833335 2.328419596354166 Q 3.260904947916667 2.3225195312499993 3.260904947916667 2.309498697916666 L 3.260904947916667 1.8798111979166658 Q 3.260904947916667 1.8427832031249993 3.231608072916667 1.8399348958333326 Q 3.228759765625 1.8395279947916658 3.224283854166667 1.8391210937499993 Q 3.2198079427083335 1.8387141927083326 3.2177734375 1.8385107421874993 Q 3.215738932291667 1.8383072916666658 3.212687174479167 1.8376969401041658 Q 3.209635416666667 1.8370865885416658 3.2082112630208335 1.8362727864583326 Q 3.206787109375 1.8354589843749993 3.20556640625 1.8342382812499993 Q 3.2027180989583335 1.8317968749999993 3.2027180989583335 1.8224381510416658 Q 3.2027180989583335 1.8130794270833326 3.21533203125 1.8029069010416658 Q 3.2381184895833335 1.7841894531249993 3.276774088541667 1.7841894531249993 Q 3.31787109375 1.7841894531249993 3.3247884114583335 1.7890722656249993 Q 3.338623046875 1.7988378906249993 3.338623046875 1.8147070312499993 L 3.338623046875 2.309498697916666 Q 3.338623046875 2.333098958333333 3.3648681640625 2.334523111979166 Q 3.39111328125 2.3359472656249993 3.39111328125 2.3554785156249993 Q 3.39111328125 2.377858072916666 3.36669921875 2.383147786458333 Q 3.3479817708333335 2.3872167968749993 3.3154296875 2.3872167968749993 M 3.484903971354167 2.117237955729166 Q 3.465983072916667 2.1052343749999993 3.465983072916667 2.085906575520833 Q 3.465983072916667 2.066578776041666 3.476969401041667 2.049488932291666 Q 3.487955729166667 2.032399088541666 3.5054524739583335 2.0216162109374993 Q 3.52294921875 2.010833333333333 3.546142578125 2.003509114583333 Q 3.5884602864583335 1.9900813802083326 3.6372884114583335 1.9900813802083326 Q 3.719482421875 1.9900813802083326 3.7567138671875 2.0264990234374993 Q 3.7939453125 2.062916666666666 3.7939453125 2.1467382812499993 L 3.7935384114583335 2.266774088541666 Q 3.7935384114583335 2.3103124999999993 3.8045247395833335 2.3212988281249993 Q 3.807373046875 2.324147135416666 3.822428385416667 2.3286230468749993 Q 3.863932291666667 2.341643880208333 3.863932291666667 2.348561197916666 Q 3.863932291666667 2.391285807291666 3.7764485677083335 2.391285807291666 Q 3.7434895833333335 2.391285807291666 3.7335205078125 2.376637369791666 Q 3.723551432291667 2.361988932291666 3.7227376302083335 2.323333333333333 Q 3.7044270833333335 2.356292317708333 3.6669921875 2.376637369791666 Q 3.629557291666667 2.3969824218749993 3.586832682291667 2.3969824218749993 Q 3.544108072916667 2.3969824218749993 3.514404296875 2.3859960937499993 Q 3.4847005208333335 2.3750097656249993 3.4661865234375 2.350392252604166 Q 3.447672526041667 2.325774739583333 3.447672526041667 2.297291666666666 Q 3.447672526041667 2.2688085937499993 3.4541829427083335 2.251515299479166 Q 3.460693359375 2.234222005208333 3.470458984375 2.2224218749999993 Q 3.480224609375 2.210621744791666 3.497111002604167 2.201263020833333 Q 3.5139973958333335 2.1919042968749993 3.5286458333333335 2.1864111328124993 Q 3.5432942708333335 2.1809179687499993 3.5664876302083335 2.176442057291666 Q 3.6006673177083335 2.1699316406249993 3.6238606770833335 2.167286783854166 Q 3.6470540364583335 2.164641927083333 3.647867838541667 2.164235026041666 Q 3.650309244791667 2.1638281249999993 3.6757405598958335 2.161183268229166 Q 3.701171875 2.158538411458333 3.7158203125 2.1504003906249993 Q 3.7158203125 2.073089192708333 3.695068359375 2.049488932291666 Q 3.6767578125 2.029143880208333 3.6348470052083335 2.029143880208333 Q 3.592936197916667 2.029143880208333 3.5719807942708335 2.050506184895833 Q 3.551025390625 2.071868489583333 3.551025390625 2.118255208333333 L 3.551432291666667 2.1272070312499993 Q 3.534342447916667 2.129241536458333 3.519083658854167 2.129241536458333 Q 3.503824869791667 2.129241536458333 3.484903971354167 2.117237955729166 M 3.7158203125 2.1870214843749993 Q 3.688151041666667 2.197194010416666 3.653361002604167 2.2010595703124993 Q 3.618570963541667 2.204925130208333 3.5986328125 2.2102148437499993 Q 3.5786946614583335 2.215504557291666 3.5652669270833335 2.223235677083333 Q 3.534342447916667 2.241139322916666 3.534342447916667 2.2846777343749993 Q 3.534342447916667 2.354664713541666 3.61572265625 2.354664713541666 Q 3.6861165364583335 2.354664713541666 3.704833984375 2.287526041666666 Q 3.7158203125 2.2492773437499993 3.7158203125 2.1870214843749993 M 4.025065104166667 2.3872167968749993 L 3.9900716145833335 2.387623697916666 Q 3.9367675781250004 2.387623697916666 3.9241536458333335 2.3713476562499993 Q 3.9184570312500004 2.3640234374999993 3.9184570312500004 2.3536474609374993 Q 3.9184570312500004 2.3432714843749993 3.9265950520833335 2.339202473958333 Q 3.934733072916667 2.335133463541666 3.9447021484375004 2.3347265624999993 Q 3.9546712239583335 2.334319661458333 3.962809244791667 2.328419596354166 Q 3.9709472656250004 2.3225195312499993 3.9709472656250004 2.309498697916666 L 3.9709472656250004 2.0771582031249993 Q 3.9709472656250004 2.053557942708333 3.9416503906250004 2.048675130208333 Q 3.921305338541667 2.0454199218749993 3.917032877604167 2.041554361979166 Q 3.912760416666667 2.037688802083333 3.912760416666667 2.0277197265624993 Q 3.912760416666667 2.017750651041666 3.9270019531250004 2.009612630208333 Q 3.9510091145833335 1.9949641927083326 3.9874267578125004 1.9949641927083326 Q 4.023844401041667 1.9949641927083326 4.034220377604167 2.005340169270833 Q 4.044596354166667 2.015716145833333 4.044596354166667 2.0515234374999993 Q 4.100341796875 1.9884537760416658 4.197998046875 1.9884537760416658 Q 4.27734375 1.9884537760416658 4.310506184895834 2.031788736979166 Q 4.343668619791667 2.075123697916666 4.343668619791667 2.163014322916666 L 4.343668619791667 2.309498697916666 Q 4.343668619791667 2.333098958333333 4.369913736979167 2.334523111979166 Q 4.396158854166667 2.3359472656249993 4.396158854166667 2.3554785156249993 Q 4.396158854166667 2.3774511718749993 4.370930989583334 2.383147786458333 Q 4.352213541666667 2.3872167968749993 4.319254557291667 2.3872167968749993 L 4.284261067708334 2.387623697916666 Q 4.23095703125 2.387623697916666 4.218343098958334 2.3713476562499993 Q 4.212646484375 2.3640234374999993 4.212646484375 2.3536474609374993 Q 4.212646484375 2.3432714843749993 4.220784505208334 2.339202473958333 Q 4.228922526041667 2.335133463541666 4.2388916015625 2.3347265624999993 Q 4.248860677083334 2.334319661458333 4.256998697916667 2.328419596354166 Q 4.26513671875 2.3225195312499993 4.26513671875 2.309498697916666 L 4.26513671875 2.191090494791666 Q 4.26513671875 2.115406901041666 4.247639973958334 2.080413411458333 Q 4.228108723958334 2.040944010416666 4.169108072916667 2.040944010416666 Q 4.097900390625 2.040944010416666 4.072265625 2.078785807291666 Q 4.048258463541667 2.114593098958333 4.048258463541667 2.1931249999999993 L 4.048258463541667 2.309498697916666 Q 4.048258463541667 2.333098958333333 4.074503580729167 2.334523111979166 Q 4.100748697916667 2.3359472656249993 4.100748697916667 2.3554785156249993 Q 4.100748697916667 2.377858072916666 4.075927734375 2.383147786458333 Q 4.058024088541667 2.3872167968749993 4.025065104166667 2.3872167968749993 M 4.478149414062501 2.374195963541666 Q 4.460856119791667 2.361175130208333 4.460856119791667 2.340626627604166 Q 4.460856119791667 2.3200781249999993 4.479573567708334 2.306243489583333 Q 4.498291015625001 2.292408854166666 4.517415364583334 2.292408854166666 Q 4.536539713541667 2.292408854166666 4.555867513020834 2.305022786458333 Q 4.575195312500001 2.3176367187499993 4.575195312500001 2.335133463541666 Q 4.575195312500001 2.371754557291666 4.538167317708334 2.383961588541666 Q 4.528808593750001 2.3872167968749993 4.512125651041667 2.3872167968749993 Q 4.495442708333334 2.3872167968749993 4.478149414062501 2.374195963541666 M 4.779866536458334 2.109303385416666 Q 4.779866536458334 2.021412760416666 4.823811848958334 1.9530533854166658 Q 4.867757161458334 1.8846940104166658 4.942423502604167 1.8484798177083326 Q 5.017089843750001 1.8122656249999993 5.108642578125001 1.8122656249999993 Q 5.187174479166667 1.8122656249999993 5.257161458333334 1.8366796874999993 Q 5.292968750000001 1.8492936197916658 5.315551757812501 1.8726904296874993 Q 5.338134765625001 1.8960872395833326 5.338134765625001 1.9261979166666658 Q 5.338134765625001 1.9563085937499993 5.319417317708334 1.9709570312499993 Q 5.300699869791667 1.9856054687499993 5.275268554687501 1.9856054687499993 Q 5.249837239583334 1.9856054687499993 5.238850911458334 1.9815364583333326 Q 5.234375000000001 1.9184667968749993 5.202229817708334 1.8873388671874993 Q 5.170084635416667 1.8562109374999993 5.106608072916667 1.8562109374999993 Q 4.999593098958334 1.8562109374999993 4.936319986979167 1.9205013020833326 Q 4.873046875000001 1.9847916666666658 4.873046875000001 2.0881445312499993 Q 4.873046875000001 2.1577246093749993 4.903157552083334 2.214894205729166 Q 4.933268229166667 2.272063802083333 4.987589518229167 2.3054296874999993 Q 5.041910807291667 2.338795572916666 5.109863281250001 2.338795572916666 Q 5.155436197916667 2.338795572916666 5.191243489583334 2.328216145833333 Q 5.258789062500001 2.308277994791666 5.259602864583334 2.278167317708333 Q 5.260009765625001 2.267180989583333 5.260009765625001 2.251311848958333 L 5.260009765625001 2.2028906249999993 Q 5.260009765625001 2.196380208333333 5.257568359375001 2.181731770833333 Q 5.255126953125001 2.167083333333333 5.254516601562501 2.160572916666666 Q 5.253906250000001 2.1540624999999993 5.243530273437501 2.1479589843749993 Q 5.233154296875001 2.1418554687499993 5.221354166666667 2.1394140624999993 Q 5.189615885416667 2.132903645833333 5.189615885416667 2.123138020833333 Q 5.189615885416667 2.113372395833333 5.193888346354167 2.106658528645833 Q 5.198160807291667 2.099944661458333 5.207316080729167 2.095875651041666 Q 5.216471354166667 2.0918066406249993 5.225423177083334 2.089161783854166 Q 5.234375000000001 2.086516927083333 5.249430338541667 2.085296223958333 Q 5.270589192708334 2.084075520833333 5.312296549479167 2.084075520833333 Q 5.354003906250001 2.084075520833333 5.369873046875001 2.0869238281249993 Q 5.408121744791667 2.0942480468749993 5.408121744791667 2.1223242187499993 Q 5.408121744791667 2.1284277343749993 5.402425130208334 2.1308691406249993 Q 5.396728515625001 2.1333105468749993 5.393676757812501 2.134327799479166 Q 5.390625000000001 2.135345052083333 5.385742187500001 2.136565755208333 Q 5.351969401041667 2.144703776041666 5.345255533854167 2.159352213541666 Q 5.338541666666667 2.174000651041666 5.338948567708334 2.211028645833333 L 5.340169270833334 2.324554036458333 Q 5.325520833333334 2.329029947916666 5.296630859375001 2.344695638020833 Q 5.267740885416667 2.3603613281249993 5.256347656250001 2.3652441406249993 Q 5.178222656250001 2.3982031249999993 5.092569986979167 2.3982031249999993 Q 5.006917317708334 2.3982031249999993 4.935302734375001 2.363819986979166 Q 4.863688151041667 2.329436848958333 4.821777343750001 2.2633154296874993 Q 4.779866536458334 2.197194010416666 4.779866536458334 2.109303385416666 M 5.542805989583334 2.3872167968749993 L 5.507812500000001 2.387623697916666 Q 5.454508463541667 2.387623697916666 5.441894531250001 2.3713476562499993 Q 5.436197916666667 2.3640234374999993 5.436197916666667 2.3536474609374993 Q 5.436197916666667 2.3432714843749993 5.444335937500001 2.339202473958333 Q 5.452473958333334 2.335133463541666 5.462443033854167 2.3347265624999993 Q 5.472412109375001 2.334319661458333 5.480550130208334 2.328419596354166 Q 5.488688151041667 2.3225195312499993 5.488688151041667 2.309498697916666 L 5.488688151041667 2.108489583333333 Q 5.488688151041667 2.0722753906249993 5.479939778645834 2.0637304687499993 Q 5.471191406250001 2.0551855468749993 5.465291341145834 2.0527441406249993 Q 5.459391276041667 2.0503027343749993 5.446777343750001 2.0466406249999993 Q 5.434163411458334 2.0429785156249993 5.426228841145834 2.0393164062499993 Q 5.418294270833334 2.0356542968749993 5.418294270833334 2.0283300781249993 Q 5.418294270833334 1.9957779947916658 5.505777994791667 1.9957779947916658 Q 5.542805989583334 1.9957779947916658 5.552775065104167 2.008595377604166 Q 5.562744140625001 2.021412760416666 5.562744140625001 2.067799479166666 Q 5.576578776041667 2.032805989583333 5.608520507812501 2.012867838541666 Q 5.640462239583334 1.9929296874999993 5.674031575520834 1.9929296874999993 Q 5.707600911458334 1.9929296874999993 5.729370117187501 2.007374674479166 Q 5.751139322916667 2.021819661458333 5.751139322916667 2.043995768229166 Q 5.751139322916667 2.0661718749999993 5.736897786458334 2.079396158854166 Q 5.722656250000001 2.092620442708333 5.701904296875001 2.092620442708333 Q 5.681152343750001 2.092620442708333 5.666300455729167 2.081634114583333 Q 5.651448567708334 2.070647786458333 5.646972656250001 2.053151041666666 Q 5.636393229166667 2.0515234374999993 5.629475911458334 2.0515234374999993 Q 5.565999348958334 2.0515234374999993 5.565999348958334 2.197600911458333 L 5.565999348958334 2.309498697916666 Q 5.565999348958334 2.333098958333333 5.592244466145834 2.334523111979166 Q 5.618489583333334 2.3359472656249993 5.618489583333334 2.3554785156249993 Q 5.618489583333334 2.377858072916666 5.594075520833334 2.383147786458333 Q 5.575358072916667 2.3872167968749993 5.542805989583334 2.3872167968749993 M 5.982666015625001 2.397389322916666 Q 5.890706380208334 2.397389322916666 5.834554036458334 2.339405924479166 Q 5.778401692708334 2.281422526041666 5.778401692708334 2.192311197916666 Q 5.778401692708334 2.132903645833333 5.808105468750001 2.086516927083333 Q 5.837809244791668 2.040130208333333 5.888468424479168 2.0155126953124993 Q 5.939127604166668 1.9908951822916658 6.001383463541668 1.9908951822916658 Q 6.090901692708334 1.9908951822916658 6.149088541666668 2.0466406249999993 Q 6.207275390625001 2.102386067708333 6.207275390625001 2.1906835937499993 Q 6.207275390625001 2.2517187499999993 6.177368164062501 2.299122721354166 Q 6.147460937500001 2.346526692708333 6.096598307291668 2.3719580078124993 Q 6.045735677083334 2.397389322916666 5.982666015625001 2.397389322916666 M 6.093953450520834 2.311126302083333 Q 6.127929687500001 2.2700292968749993 6.127929687500001 2.2016699218749993 Q 6.127929687500001 2.1333105468749993 6.088867187500001 2.083668619791666 Q 6.049804687500001 2.034026692708333 5.988566080729168 2.034026692708333 Q 5.927327473958334 2.034026692708333 5.894368489583334 2.0759374999999993 Q 5.861409505208334 2.117848307291666 5.861409505208334 2.1858007812499993 Q 5.861409505208334 2.253753255208333 5.900065104166668 2.3029882812499993 Q 5.938720703125001 2.352223307291666 5.999348958333334 2.352223307291666 Q 6.059977213541668 2.352223307291666 6.093953450520834 2.311126302083333 M 6.712646484375001 2.307057291666666 Q 6.793212890625001 2.0966894531249993 6.800944010416668 2.058033854166666 Q 6.800944010416668 2.049488932291666 6.782633463541668 2.0454199218749993 Q 6.748046875000001 2.0380957031249993 6.748046875000001 2.023854166666666 Q 6.748046875000001 2.012054036458333 6.750895182291668 2.0075781249999993 Q 6.793212890625001 1.9974055989583326 6.844889322916668 1.9974055989583326 Q 6.929117838541668 1.9974055989583326 6.929117838541668 2.0149023437499993 Q 6.929117838541668 2.029957682291666 6.915283203125001 2.040944010416666 Q 6.884765625000001 2.0454199218749993 6.869303385416668 2.0594580078124993 Q 6.853841145833335 2.0734960937499993 6.843668619791668 2.1003515624999993 L 6.818440755208335 2.166676432291666 Q 6.745605468750001 2.350188802083333 6.737467447916668 2.363209635416666 Q 6.717529296875001 2.3969824218749993 6.698811848958335 2.3969824218749993 Q 6.683756510416668 2.3969824218749993 6.666259765625001 2.3591406249999993 Q 6.663004557291668 2.352630208333333 6.662597656250001 2.351409505208333 L 6.569417317708335 2.145924479166666 Q 6.505126953125001 2.2895605468749993 6.470540364583335 2.361175130208333 Q 6.461995442708335 2.381927083333333 6.452636718750001 2.3878271484374993 Q 6.443277994791668 2.393727213541666 6.433308919270835 2.393727213541666 Q 6.423339843750001 2.393727213541666 6.420288085937501 2.390675455729166 Q 6.417236328125001 2.387623697916666 6.413574218750001 2.381316731770833 Q 6.409912109375001 2.3750097656249993 6.407470703125001 2.370533854166666 Q 6.405029296875001 2.366057942708333 6.400960286458335 2.357716471354166 Q 6.396891276041668 2.3493749999999993 6.395670572916668 2.347340494791666 L 6.298828125000001 2.122731119791666 Q 6.273193359375001 2.0588476562499993 6.263020833333335 2.048675130208333 L 6.263020833333335 2.0490820312499993 Q 6.255696614583335 2.045826822916666 6.239013671875001 2.043181966145833 Q 6.222330729166668 2.0405371093749993 6.213785807291668 2.035247395833333 Q 6.205240885416668 2.029957682291666 6.205240885416668 2.0173437499999993 Q 6.205240885416668 1.9974055989583326 6.316731770833335 1.9974055989583326 Q 6.354980468750001 1.9974055989583326 6.382853190104168 2.0026953124999993 Q 6.410725911458335 2.007985026041666 6.410725911458335 2.015716145833333 Q 6.410725911458335 2.029143880208333 6.405639648437501 2.033619791666666 Q 6.400553385416668 2.0380957031249993 6.387125651041668 2.0417578124999993 Q 6.363932291666668 2.0478613281249993 6.363932291666668 2.061695963541666 Q 6.363932291666668 2.0820410156249993 6.402791341145835 2.1827490234374993 Q 6.441650390625001 2.2834570312499993 6.452636718750001 2.305836588541666 Q 6.489664713541668 2.2273046874999993 6.542154947916668 2.0942480468749993 Q 6.528727213541668 2.060882161458333 6.518147786458335 2.0527441406249993 L 6.501464843750001 2.0393164062499993 Q 6.488037109375001 2.029143880208333 6.488037109375001 2.0246679687499993 Q 6.488037109375001 2.003509114583333 6.568400065104168 2.003509114583333 Q 6.648763020833335 2.003509114583333 6.648763020833335 2.019378255208333 Q 6.648763020833335 2.034026692708333 6.630249023437501 2.035450846354166 Q 6.611735026041668 2.0368749999999993 6.611735026041668 2.0478613281249993 Q 6.611735026041668 2.0588476562499993 6.614786783854168 2.067189127604166 Q 6.617838541666668 2.075530598958333 6.621093750000001 2.083465169270833 Q 6.624348958333335 2.091399739583333 6.630452473958335 2.1076757812499993 Q 6.645100911458335 2.148365885416666 6.696370442708335 2.268401692708333 L 6.712646484375001 2.307057291666666 M 6.980183919270835 2.374195963541666 Q 6.962890625000001 2.361175130208333 6.962890625000001 2.340626627604166 Q 6.962890625000001 2.3200781249999993 6.981608072916668 2.306243489583333 Q 7.000325520833335 2.292408854166666 7.019449869791668 2.292408854166666 Q 7.038574218750001 2.292408854166666 7.057902018229168 2.305022786458333 Q 7.077229817708335 2.3176367187499993 7.077229817708335 2.335133463541666 Q 7.077229817708335 2.371754557291666 7.040201822916668 2.383961588541666 Q 7.030843098958335 2.3872167968749993 7.014160156250001 2.3872167968749993 Q 6.997477213541668 2.3872167968749993 6.980183919270835 2.374195963541666" fill="#67a97b" fill-rule="nonzero"></path></g></g><defs><clipPath id="SvgjsClipPath82333"><path d=" M -7.698287685781727 -1.3101257006254068 h 7.298287685781727 v 5.007468198125813 h -7.298287685781727 Z"></path></clipPath><clipPath id="SvgjsClipPath823287633a1b6-9702-4418-9c5d-a07e6994c644"><path d=" M -7.698287685781727 -1.3101257006254068 L -0.40000000000000036 -1.3101257006254068 L -0.40000000000000036 3.697342497500406 L -7.698287685781727 3.697342497500406 Z"></path></clipPath><linearGradient id="gradient-42ae73ae-a203-4631-8cc6-703493d65783_0" x1="0" x2="1" y1="0" y2="1"><stop stop-color="#67a97b" offset="0"></stop><stop stop-color="#1c3423" offset="1"></stop></linearGradient></defs></svg>